<svg xmlns="http://www.w3.org/2000/svg" enable-background="new 0 0 350.57 180.87" version="1.1" viewBox="0 0 350.57 180.87" x="0px" xml:space="preserve" y="0px" style="fill: rgb(0, 0, 0);">
<g>
	<linearGradient gradientUnits="userSpaceOnUse" id="__id35_sh0z2n2fva" x1="162.81" x2="171.62" y1="2.3414" y2="2.3414">
		<stop offset="0" style="stop-color: rgb(33, 59, 59);"></stop>
		<stop offset=".9984" style="stop-color: rgb(33, 59, 59);"></stop>
	</linearGradient>
	<path d="m163.65 3.17c3.16-0.7 3.04-0.82 6.27-0.4 0.59-0.57 2.29-0.57 1.48-0.89-1.79 0.58-6.71 0.02-7.17-0.37-0.06 0.99-2.74 1.14-0.58 1.66z" style="fill: url(&quot;#__id35_sh0z2n2fva&quot;);"></path>
	<linearGradient gradientUnits="userSpaceOnUse" id="__id36_sh0z2n2fva" x1="152.59" x2="158.51" y1=".7598" y2=".7598">
		<stop offset="0" style="stop-color: rgb(33, 59, 59);"></stop>
		<stop offset=".9984" style="stop-color: rgb(33, 59, 59);"></stop>
	</linearGradient>
	<path d="m155.02 1.15c-0.64 0.03-1.22 0.03-0.66-0.27 1.85-0.1 3.12-0.43 4.15-0.87-1.82 0.28-5.22-0.04-5.93 0.68 1.58-0.16 0.04 1.57 2.44 0.46z" style="fill: url(&quot;#__id36_sh0z2n2fva&quot;);"></path>
	<linearGradient gradientUnits="userSpaceOnUse" id="__id37_sh0z2n2fva" x1="-.0000096811" x2="350.57" y1="90.73" y2="90.73">
		<stop offset="0" style="stop-color: rgb(33, 59, 59);"></stop>
		<stop offset=".9984" style="stop-color: rgb(33, 59, 59);"></stop>
	</linearGradient>
	<path d="m194.98 7.78c1.93 0.55 1.01 0.18 2.27-0.34 1.25 0.73 2.3 1.55 3.15 2.43 0.86 0.87 1.51 1.8 1.99 2.73 0.94 1.87 1.19 3.67 0.75 5.75-0.33-1.69-0.7-2.88-0.98-3.83-0.15-0.46-0.28-0.88-0.4-1.26-0.13-0.36-0.25-0.72-0.38-1.05-0.27-0.65-0.58-1.26-1.09-1.91-0.52-0.65-1.23-1.33-2.36-2.01-0.72 0.05-0.36 0.38-0.09 0.77 0.27 0.36 0.47 0.73-0.53 0.62-1.33-0.94-2.03-1.43-2.33-1.9zm-18.93-6.58c1.04 0.22 2 0.45 2.91 0.68 0.9 0.23 1.76 0.45 2.59 0.66 0.41 0.11 0.82 0.21 1.22 0.31 0.36 0.11 0.65 0.23 0.97 0.34 1.27 0.45 2.53 0.85 3.96 1.19 0.71 0.17 1.46 0.33 2.26 0.47 0.81 0.14 1.64 0.27 2.49 0.42-0.37-0.12-0.73-0.25-1.09-0.37-0.38-0.12-0.75-0.24-1.12-0.35-0.73-0.24-1.43-0.48-2.11-0.73-1.34-0.51-2.65-1-3.95-1.49-0.15-0.06-0.36-0.11-0.57-0.17l-0.63-0.15-1.29-0.3c-0.87-0.19-1.77-0.37-2.71-0.53s-1.93-0.3-2.97-0.41c-0.52-0.06-1.06-0.1-1.62-0.14-0.28-0.02-0.56-0.03-0.85-0.05-0.3-0.01-0.71 0.03-1.07 0.05 0.88-0.01 1.38 0.13 1.95 0.23 0.56 0.12 1.1 0.23 1.63 0.34zm13.92 4.74c0.85 0.21 1.78 0.72 2.45 0.58-0.16-0.37-0.92-0.73-1.83-0.94-0.93-0.22-2.1-0.33-2.85-0.29 0.06 0.1 0.07 0.42 0.29 0.64 0.23 0.23 0.68 0.36 1.54 0.18-0.29-0.08-0.26-0.32 0.4-0.17zm-128.36 11.51c3.3-0.94 4.78-1.04 6.1-1.75-1.92 0.5-2.49 0.11-3.24-0.17 0.43-0.1 0.84-0.45-0.05-0.3 0.06 0.4-1.31 0.59-1.44 0.97 3.98-0.24-4.48 1.61-1.37 1.25zm14.85 3.12c2.53-0.16 0.43-1.1 2.96-1.25-0.05 0.97-1.03 1.67-2.52 2.22s-3.48 0.93-5.54 1.34c-4.12 0.8-8.57 1.4-9.83 2.74 2.68-0.37 6.1-1.07 9.04-2.48 2.13 0.22-1.87 1.28 0.25 1.5 0.81-0.18 1.9-0.6 0.71-0.48-0.46 0.09-0.9 0.16-0.8-0.13 3.93-0.53 0.65-1.06 2.12-1.44 1.66-0.09 4.96 0.5 6.23-0.41-1.97-0.38 6.15-1.12 2.1-1.69 0.76-0.16 0.87-0.44 1.48-0.63 1.41 0.73 3.25 0.37 0.76-0.16 0.9-0.15 2.16-0.48 2.33-0.15 0.67 0.71-1.43 0.9-1.36 1.5 3.79-1.13 4.99-0.92 7.59-1.77 1.14 0.49-1.82 1.51 0.16 1.2 1.58-1.14 0.71-0.91 1.36-2.11-0.72-0.03-1.49-0.06-2.28-0.09-0.76-0.02-1.54-0.03-2.3-0.05-1.52-0.04-3-0.11-4.2-0.34-0.5 1.09-0.56 0.75 0.94 1.05-2.36-0.16-3.71 1.19-4.68 0.34 2.87 0.06 0.41-0.46 0.59-1.37-2.8 1.06-2.23 0.99-6.08 1.62-0.3 1.07 2.83-0.17 0.97 1.04zm46.98-16.31c-1.62 0.19-4.5 0.66-2.53 0.64 3.31-0.72 7.01-1.45 9.95-2.11-0.23-0.06-0.82-0.08-1.61-0.08-0.4 0.01-0.83 0.01-1.31 0.05s-1 0.09-1.51 0.15c-2.07 0.23-4.21 0.58-4.92 1 1.42-0.17 2.72-0.28 1.93 0.35zm-32.09 7.54c0.1 0 0.22-0.01 0.34-0.03 0.17-0.03 0.36-0.06 0.56-0.1 0.41-0.08 0.83-0.18 1.34-0.29 1.97-0.44 4.31-1.05 4.93-1.28-1.75 0.34-3.08 0.38-4.32 0.49-0.62 0.06-1.21 0.14-1.76 0.27-0.28 0.07-0.56 0.15-0.84 0.25-0.22 0.09-0.41 0.19-0.61 0.32-0.22 0.28-0.04 0.38 0.36 0.37zm10.71-3.21c-1.26-0.21-2.95 0.2-4.6 0.61s-3.28 0.8-4.63 0.64c-1.11 1.2 8.57-0.72 9.23-1.25zm-25.81 5.51c3.74-1.11 5.53-0.81 6.87-2.08-2.49 0.63-6.76 1.03-6.87 2.08zm125.03 22.21c0.55-0.63 1.1-1.45 1.52-2.24 0.41-0.79 0.67-1.55 0.69-2-0.28 0.3-0.93 1.34-1.49 2.28-0.56 0.95-1.02 1.81-0.72 1.96zm58.73 91.53c0.29-1.65 3.66-1.15 5.66-2.66-4.86 0.99 3.68-1.2 0.62-0.78-4.46 0.81-5.14 2.72-8.71 2.79 0.01 0.77 1.3 0.66 2.43 0.65zm-63.1-61.26c-0.32 0.04-0.69 0.07-1.1 0.09-0.42 0.03-0.88 0.07-1.38 0.12-0.99 0.07-2.12 0.12-3.34 0.16-2.44 0.1-5.19 0.02-7.92 0.28-2.71 0.19-5.32 0.37-7.32 0.58-1.05 0.11-1.75 0.25-2.31 0.38-0.38 0.11-0.61 0.22-0.69 0.36 0.33-0.06 0.69-0.12 1.05-0.18 0.48-0.08 0.97-0.15 1.58-0.22 1.16-0.11 2.37-0.23 3.54-0.34 2.34-0.21 4.55-0.37 6.1-0.43 1.54-0.04 2.39 0.08 2.08 0.22-0.16 0.08-0.6 0.17-1.41 0.29-0.81 0.14-1.98 0.36-3.56 0.6 0.04-0.31 1.22-0.48 1.55-0.76-2.51 0.07-5.67 0.46-7.68 0.86-0.5 0.1-0.95 0.21-1.27 0.31-0.29 0.1-0.5 0.2-0.61 0.28-0.2 0.17 0 0.28 0.84 0.3 2.3-0.76 5.14-0.86 8.09-1.05 0.74-0.05 1.49-0.1 2.24-0.17 0.75-0.05 1.5-0.07 2.27-0.14 1.53-0.14 3.08-0.38 4.7-0.83 0.64 0.08 1.72 0.17 2.85 0.27 1.12 0.14 2.28 0.34 3.14 0.51 1.72 0.36 2.21 0.72-1.24 0.99-2.31-0.08-2.2-0.29-1.84-0.5 0.35-0.19 0.97-0.43-0.45-0.45 0.01 0.48-0.91 0.32-1.92 0.18s-2.12-0.26-2.38 0.29c1.05 0.03 2.74-0.1 2.66 0.21-2.8 0.45-4.34 0.42-5.98 0.31-1.63-0.15-3.4-0.18-6.49 0.13-2.43 0.42-2.41 1.15-4.29 1.63-0.3-0.21-0.01-0.61-1.36-0.47 0.25 0.31 0.19 0.46 0 0.54s-0.52 0.08-0.88 0.06l-0.27-0.01-0.19-0.02c-0.13-0.01-0.25-0.02-0.35-0.01-0.21 0.02-0.35 0.1-0.34 0.32 0.34 0.01 0.65 0.02 0.95 0.02 0.41-0.02 0.79-0.04 1.14-0.06 0.77-0.05 1.43-0.1 1.98-0.16 1.11-0.13 1.86-0.31 2.57-0.48s1.39-0.33 2.34-0.4c0.95-0.06 2.19-0.11 3.95 0.1 0.3-0.37-0.01-0.86 1.6-0.98 0.95 0.16 3.02 0.21 5.58 0.18 0.64 0 1.32-0.03 1.99-0.02 0.68 0.02 1.37 0.03 2.07 0.05 1.41 0.03 2.87 0.04 4.29 0.04 0.72-0.01 1.42-0.01 2.11-0.02 0.7-0.02 1.32 0.04 1.95 0.05 1.24 0.04 2.38 0.05 3.35 0.04 1.81-0.03 3-0.16 3.07-0.43-0.35 0.42-7.33-0.13-6.47-0.56 0.6-0.59 3.95-0.67 6.88-0.76 0.74-0.03 1.45-0.05 2.07-0.08 0.62-0.02 1.11 0 1.51-0.03 0.79-0.06 1.1-0.23 0.55-0.61-1.2-0.05-3.01 0.09-4.89 0.12-1.89 0.04-3.93 0.05-5.85-0.01-3.98 0.06-7.6-0.02-8.86-0.69zm130.25 48.44c0.54-0.24 1.43-0.45 1.38-0.74-1.94 0.6-4.14 1.38-5.18 1.26 0.56 0.87 5.05 0.48 6.2-0.3-0.76-0.12-2.71 0.72-2.4-0.22zm-97.21-43.09c0.14 0.05 0.26 0.1 0.39 0.14 0.1 0.06 0.2 0.11 0.29 0.16 0.77 0.41 1.5 0.69 3.23 1.47 1.39 1.87 0.17 1.27-1.81 1.25 1.5 0.85 2.16 1.13 2.71 1.4 0.49 0.3 0.88 0.58 1.77 1.55 0.26-0.72 0.16-1.21 0.34-1.45s0.66-0.25 2.03 0.08c-0.39-0.41-0.77-0.78-1.15-1.12-0.38-0.33-0.71-0.64-1.14-0.89-0.81-0.51-1.52-0.95-2.15-1.35-1.26-0.8-2.14-1.46-2.62-2.37-3.07-0.54-1.63 0.45-5.6-0.37 1.23 0.51 2.1 0.87 2.78 1.15 0.36 0.13 0.66 0.24 0.93 0.35zm33 51.11c0.1-0.76 2.14-1.24 2.7-1.93-1.48 0.95-6.01 1.45-7.22 2.42 2.29-0.7 2.96-0.27 4.52-0.49zm-39.97-53.58c0.26 0.02 0.44 0.07 0.63 0.08 0.37 0.03 0.67-0.01 0.86-0.14-0.37-0.08-0.66-0.17-0.9-0.27s-0.5-0.15-0.67-0.24c-0.37-0.17-0.56-0.36-0.75-0.54-0.37-0.34-0.69-0.59-2.16-0.26 0.74 0.15 1.43 0.3 0.97 0.49-1.54-0.23-3.01-0.43-3 0.12 1.51 0.28 2.98 0.55 4.18 0.68 0.3 0.04 0.58 0.06 0.84 0.08zm-17.89-44.57c0.08-0.65 0.21-2.54 0.04-4.01-0.17-1.46-0.46-2.4-0.44-1.02 0.47 1.89 0.16 2.49-0.12 2.98-0.31 0.48-0.62 0.88-0.71 2.23 0.83-0.04 0.74-1.43 1.23-0.18zm-18.08 21.59c-1.63 1.27-0.02 1.16-0.25 1.86 2-1.54 2.18-2.71 0.25-1.86zm12.72-11.69c0.5-0.73 0.62-0.4 0.73-0.06 0.35-0.92 1.37-2.48 2-3.73 0.64-1.25 0.97-2.14 0.37-1.42-0.31 1.05-1.08 2.29-1.82 3.28-0.74 0.97-1.39 1.73-1.28 1.93zm-132.63-8.96c-1.65 0.82-2.98-0.09-3.03 0.72 0.47-0.09 0.9-0.17 0.81 0.12-9.41 1.32-0.63 1.36 2.22-0.84zm134.14 0.4c-0.38 1.26-0.45 1.79-0.34 2.13 0.1 0.32 0.37 0.42 0.51 0.71 0.17-0.7 0.39-1.07 0.6-1.38 0.22-0.3 0.45-0.52 0.64-0.92-0.06-0.4-0.01-1.65-0.04-2.92-0.01-1.26-0.13-2.53 0.09-2.74 0.14 0.65 0.09 1.68 0.38 1.66 0.02-0.93-0.1-1.6-0.31-2.01-0.2-0.4-0.47-0.53-0.78-0.39 0.03 1.65 0.24 3.31 0.22 4.42-0.02 1.12-0.21 1.74-0.97 1.44zm-133.1-3.45c2.76-0.16 3.36-0.99 6.13-1.11 0.6-1.24-5.84 0.6-6.13 1.11zm0.69 81.71c0.06-0.09 0.14-0.18 0.22-0.26-0.14 0.08-0.23 0.18-0.22 0.26zm232.34 49.06c1.78-0.5 2.33-0.11 4.58-0.95 0.86-1.25-4.66 0.48-4.58 0.95zm-202.27-136.53c-1.15-0.1-2.64-0.17-2.71-0.69-0.67 0.97-0.2 1.4 0.86 1.55 0.7 0.1 1.66 0.06 2.77-0.03 1.02-0.6 0.22-0.73-0.92-0.83zm59.5 44.73c0.4-0.01 0.35-0.08 0 0zm24.24 90.15c-0.4-1.08-0.85-2.23-1.14-3.35-0.29-1.13-0.61-2.24-0.79-3.19-0.2-0.96-0.37-1.79-0.55-2.4-0.17-0.6-0.32-0.97-0.52-1.03 0.19 2.21 0.63 4.74 1.25 6.69 0.61 1.94 1.36 3.29 1.75 3.28zm35.63 28.51c-0.51-0.06-1.03-0.11-1.56-0.17-0.54-0.08-1.09-0.15-1.65-0.23-0.28-0.04-0.57-0.09-0.86-0.13-0.31-0.06-0.62-0.11-0.94-0.17-0.63-0.12-1.27-0.22-1.91-0.38-5.13-1.14-10.59-3.1-15.85-6.37-2.63-1.63-5.19-3.59-7.53-5.83-2.34-2.27-4.44-4.85-6.15-7.51-1.71-2.67-3.01-5.44-3.9-7.88-0.48-1.22-0.8-2.38-1.11-3.45-0.15-0.54-0.3-1.05-0.41-1.54-0.1-0.48-0.2-0.94-0.3-1.38 0.24 1.6 0.68 3.26 1.13 4.89 0.24 0.82 0.54 1.63 0.83 2.44 0.3 0.81 0.6 1.62 0.98 2.42 1.42 3.25 3.31 6.22 5.4 8.84 1.05 1.33 2.15 2.51 3.29 3.66 1.14 1.09 2.31 2.16 3.49 3.08 2.37 1.88 4.8 3.44 7.2 4.69 2.41 1.26 4.8 2.27 7.15 3.04 2.35 0.79 4.67 1.35 6.93 1.74 0.57 0.09 1.13 0.18 1.68 0.26 0.51 0.06 1.02 0.12 1.52 0.17 1 0.12 1.94 0.16 2.86 0.21 0.91 0.04 1.78 0.04 2.62 0.04 0.81-0.02 1.62-0.04 2.36-0.1-0.75-0.04-1.56-0.08-2.43-0.12-0.89-0.05-1.81-0.11-2.84-0.22zm-30.38-20.57c0.81 1 1.79 2.22 2.69 3.1 0.59-0.04 0.38-0.6-0.19-1.36-0.56-0.77-1.47-1.79-2.32-2.74-0.84-0.97-1.65-1.83-2.06-2.17-0.42-0.33-0.52-0.03 0.15 1.28 0.3 0.04 0.93 0.86 1.73 1.89zm145.85-24.28c2.5-1.33 4.06-0.19 4.52-1.08-0.71-0.43-4.02-0.36-4.52 1.08zm-233.96-117.67c0.09-0.02 0.17-0.03 0.26-0.05-0.07 0.01-0.13 0.01-0.2 0.02-0.03 0-0.04 0.01-0.06 0.03zm237.29 118.23c-1.92-0.11-5.63 1.22-8.18 2.49 1.42-0.01 7.08-1.53 8.18-2.49zm-180.25-20.46c0.15-0.11 0.26-0.25 0.34-0.39-0.3 0.09-0.33 0.24-0.34 0.39zm170.69 20.51c0.56 0.27 2.87-0.82 3.11-0.31l-2.97 0.9c-0.16 0.63-0.95 1.36 0.35 1.48 0.28-1.04 2.29-1.92 4.91-2.75 0.47-1.26-7.41 0.89-5.4 0.68zm-226.49-1.5c0.42-0.13 0.79-0.5-0.07-0.29-0.42 0.84-4.7 1.37-3.5 2.34 1.96-0.71 4.12-1.42 5.14-2.21-0.6 0.11-1.48 0.44-1.57 0.16zm-43.35-116.84c0.64 1.65-4.17-0.54-2.35 0.29 0.75 0.97-3.18 1.36-3.59 2.19 2.36-0.61 9.36-2.14 5.94-2.48zm-27.61 16.7c-0.37-0.51 0.85-0.92 1.27-1.36-0.94 0.01-2.09 0.25-3.79 0.9 0.06 0.79 1.84 0.18 2.52 0.46zm-5.81 16.94c-2.58 0.2-3.96-0.27-6.06 0.84 0.8-0.2 1.86-0.12 0.89 0.33-0.82 0.15-2.35 0.44-3.82 0.83s-2.86 0.92-3.41 1.46c2.38-0.61 4.56-1.24 6.6-1.83 2.03-0.61 3.93-1.19 5.8-1.63zm-9.76-3.65c-0.15-1.16-7.18 1.91-8.02 2.64 0.99-0.11 2.35-0.75 3.78-1.38 0.72-0.31 1.45-0.62 2.17-0.86s1.42-0.39 2.07-0.4zm37.93-20.16c0.89-0.18 0.91 0.26 0.94 0.7 1.5-0.24 3.69-1.8 2.08-1.48-0.01 0.19-0.04 0.38-0.69 0.49-0.04-0.21-0.08-0.4-0.12-0.6-2.71 0.52-3.83 1.28-4.33 2.1 3.53-0.71 0.68-0.69 2.12-1.21zm-3.56 1.93c-1.06-0.7 1.02-1.05 1.25-1.62-2.56 0.78-0.14-1.02-3.26-0.34 0.51 1.09-1.59 2.75 2.01 1.96zm-45.02 15.03c-9.48 3.67 1.08 0.36 5.1-1.91-1.77 0.66-3.4 1.27-5.1 1.91zm74.23 97.34c0.06 0.88 2.09 0.34 4.11-0.17-1.44-0.73 2.63-0.9 2.16-1.54-2.6-0.11-3.5 1.71-6.27 1.71zm-19.61 2.43c-0.21-0.2-0.1-0.59-0.9-0.44-2.45 1.23 4 1.26 3.3-0.36-1.12 0.23-1.77 0.51-2.4 0.8zm-35.77-49c-0.58 1.19-0.22 1.01 0.3 0.66 0.54-0.33 1.26-0.82 1.42-0.29-0.98 1.02-1.39 1.63-1.51 1.92s0.06 0.29 0.31 0.21c0.51-0.16 1.33-0.63 0.72 0.24-0.94 0.8-1.6 1.84-2.08 2.64-0.47 0.82-0.77 1.39-1.07 1.22-0.26-0.31 0.47-1.31-0.06-1.42-1.84 2.21-2.11 3-1.81 3.26 0.37 0.14 1.29-0.23 1.94-0.44 0.45-0.77 1.02-1.63 1.65-2.51 0.65-0.85 1.36-1.74 2.04-2.6 0.68-0.87 1.39-1.66 1.98-2.42s1.09-1.46 1.44-2.04c-0.69 0.54-2.71 0.87-1.49-0.23 0.33-0.18 0.98-0.69 1.71-1.35 0.74-0.67 1.58-1.46 2.32-2.17 0.74-0.72 1.36-1.39 1.65-1.84 0.29-0.44 0.25-0.65-0.36-0.48-0.23 0.42-0.75 1.02-1.42 1.7-0.66 0.67-1.47 1.41-2.26 2.16-0.79 0.73-1.59 1.4-2.24 1.91-0.64 0.52-1.15 0.86-1.4 0.86 1.06-1.15 2.02-2.13 2.8-3.03 0.77-0.9 1.37-1.69 1.76-2.35-1.15 1.17-1.52 1.37-1.6 1.12-0.07-0.23 0.16-0.87 0.3-1.18-1.66 2.05-1.41 4.15-5.04 6.45zm-7.35-50.13c2.56-0.5 4.6-0.62 6.71-1.71-1.35 0.05-6.08 1.08-6.71 1.71zm12.75 5.9c1.42-1.05 5.9-1.87 7.04-2.95-2.34 0.35-6.11 1.7-7.04 2.95zm309.22 82.66c2.96-0.98 3.33-0.95 1.62 0.13 3.82-0.8 6.02-2.95 9.32-4.21-3.61 1.35-4.9 0.83-7.61 1.45 0.1 0.98-3.9 1.62-3.33 2.63zm-223.42-84.05c-0.31 0.05-0.77 0.02-1.46-0.09-0.41 0.28-0.4 0.88-3.26 0.26-0.38 0.24-0.71 0.49 0.08 0.91-0.89-0.3-2.02-0.47-2.63-0.5-0.62-0.03-0.78 0.08-0.01 0.47 0.33-0.06 0.46-0.26 1.14-0.07-0.23 0.08 0.63 0.33 0.52 0.44-1.29-0.37-1.71-0.03-2.71-0.32 0.45 0.22 0.87 0.44 0.43 0.47 0.74 0.28 1.57 0.48 2.24 0.52s1.18-0.1 1.13-0.42c1.12 0.34 2.13 0.55 3.21 0.75-0.86 0.05-0.78 0.25-0.85 0.38-0.06 0.12-0.28 0.17-1.55-0.16 0.73 0.29 1.23 0.55 1.36 0.78 0.89-0.39 2.3 0.13 3.36-0.25-0.95-0.52 0.45-0.73-1.58-0.7 0.28-0.1-0.06-0.23 0.06-0.34 0.07-0.2 0.84-0.14 1.46-0.11 0.61 0.03 1.08 0.02 0.41-0.26-0.63 0.1-0.69-0.13 0.28-0.1-0.85-0.16-1.92-0.47-2.41-0.39 0.48 0.23 0.04 0.39-0.61 0.44-0.65 0.06-1.51 0.01-2.02-0.13 1.66-0.39 3.56-1.11 5.78-0.87-0.77-0.31-2.03-0.32-3.83-0.48-0.31-0.3 3.1 0.1 1.46-0.23zm-10.9 3.78c0.06-0.45 0.56-0.49 1.03-0.55 0.46-0.06 0.87-0.14 0.45-0.55-0.88 0.08-1.65-0.08-2.37 0.13 0.45 0.86 0.91 0.14 0.89 0.97zm5.79-5.05c-0.28 0.1-2.08-0.07-1.9 0.08 0.58 0.14 1.74 0.21 2.46 0.18 0.72-0.01 0.97-0.13-0.56-0.26zm-4.33 0.33l0.19-0.06c0.93 0.2 2.06 0.37 3.15 0.44 1.08 0.07 2.14 0.05 2.65-0.06-1.34-0.12-3.08-0.23-4.32-0.31-1.25-0.08-2.01-0.14-1.67-0.01zm1.55 2.81c-0.26 0.18-0.82-0.15-1.2-0.23 0 0.16 0.65 0.59 1.26 0.9s1.2 0.5 0.91 0.24c-0.59-0.39-0.96-0.36-1.52-0.74 0.26-0.03 1.04 0.22 0.55-0.17zm10.59 0.02c0.6-0.18 1.74-0.24 2.75-0.33s1.88-0.21 1.75-0.44c-0.73-0.2-1.68-0.13-2.4-0.09-0.71 0.05-1.21 0.08-1.24-0.12-0.14 0.03-0.83 0.08-1.3 0.19-0.6 0.15-0.88 0.36 0.44 0.79zm-11.67-2.27c-0.23 0.06-0.38 0.1 0.2 0.41 0.5 0.03 0.52-0.05 0.61-0.09 0.1-0.04 0.27-0.05 1.19 0.1-1.34-0.35 0.24-0.35-0.84-0.62-0.22 0.01-0.61-0.04-1.25-0.18 0.6 0.25 0.3 0.33 0.09 0.38zm12.53 1.29v0.01c0.04 0 0.05-0.01 0-0.01zm-64.96-7.91c0.06 0.3 0.13 0.59 0.19 0.89 1.72-1.23 1.01-0.62 4.44-0.91-2.7-0.67 0.01-0.51 1.95-1.76-1.34 0.09-2.38 0.34-3.39 0.67-0.99 0.35-1.97 0.76-3.19 1.11zm32.24-3.77c2.24-0.27 3.18 0.29 5.32 0.14 0.07-0.38-0.25-0.83 0.61-1.05 1.58-0.1 3.73 1.09 5.28-0.09-4.9 0.68-3.2-1.42-4.75-1.56 0.32 0.75-0.09 1.35-2.04 1.63 0.11-0.72-0.34-1.1-1.65-0.91 0.05 0.39-1.25 0.55-1.38 0.91 3.58-0.26-1.1 0.51-1.39 0.93zm-23.22 2.62c3.32 0.39-1.49 1.05-0.49 1.38 2.19-0.98 4.21-0.16 5.11-1.32-2.06 0.36-2.55-0.42-4.62-0.06zm18.76-1.98c2.63-0.19 2.22 0.59 1.02 1.65 1.8-1.32 2.86-1.27 4.31-1.54-1.83-0.32-2.77-1.17-5.33-0.11zm22.32 10.33c0.94 0.47 1.69 0.68 2.65 0.99-0.4-0.22-0.18-0.27 0.07-0.33-1.52-0.48-0.76-0.7-1.48-0.73 0.2 0.38-0.89 0-1.24 0.07zm-1.09 2.5c-0.22-0.95-1.57-0.29-1.42 0.15 0.68 0.18 0.93 0.38 1.42-0.15zm60.46 18.68c-0.23 0.46 0.52 0.58 1.69 0.44 1.18-0.13 2.77-0.51 4.21-1.11-1.54 0.18-4.31-0.65-5.9 0.67zm-45.79 15.49c2.59-1.08 4.05-0.43 4.45-1.68-2.42 1.32-2.79-0.58-3.84 0.85 0.46-0.12 0.9-0.23 0.82 0.07-0.56 0.24-1.48 0.46-1.43 0.76zm7.21-3.78c2.2-1.07 6.54-1.96 8.32-3.04-1.44 0.22-3.06 0.09-4.59 0.17s-3 0.35-4.08 1.39c1.95-0.55 2.81-0.24 4.04-0.23-1.92 0.51-3.15 1.08-3.69 1.71zm-12.73 4.22c0.46-1.19-0.37-1.33 2.55-2.7-2.58-0.11-2.1 1.77-5.82 2.46 0.08 0.86 2.28 0.07 3.27 0.24zm124.91 43.56c1.15-0.39 2.03-0.82 2.44-1.34-2.07 0.6-2.98 0.84-3.74 1.12-0.75 0.27-1.36 0.58-2.7 1.26 1.4-0.3 2.85-0.66 4-1.04zm-89.11-51.23c-0.11-0.4 0.25-0.75 0.63-1.09-2.85 1.23-1.28 0.13-4 0.67-0.1 0.38-0.79 0.69-1.46 0.99-0.79 0.2-0.98 0-1.62 0.11 1.11 1.13 4.65-1.39 6.45-0.68zm-65.73 16.98c0.99-0.46 3.8-0.78 3.51-1.37-0.57 0.1-1.42 0.42-1.51 0.14-0.61-0.51 1.81-1.56-0.93-0.67 0.59 0.6-1.79 1.25-3.89 1.81-0.79 0.21-1.53 0.4-2.07 0.58 0.15-0.12 0.31-0.29 0.49-0.53-2.96 0.65 1.94-1.39 1.64-1.78-1.28 0-3.52 1.37-3.84 2.17 0.25-0.13 0.55 0.38 1.04 0.4-0.28 0.17-0.2 0.3 0.49 0.42 0.64-0.79 9.14-3.17 5.07-1.17zm-8.69 4.48c1.59-1.09 7.17-3.78 6.18-3.75-2.22 1.22-6.32 2.6-6.18 3.75zm65.92-22.75c2.76-0.68 2.26-1.71 3.66-2.52-1.61 0.39-3.16 0.82-4.75 1.24-0.48 1.02 1.27 0.48 1.09 1.28zm30.97-20.57c-1.83 0.48-4.41 1.8-5.9 2.84-1.62 1.02-2.08 1.81 0.99 1.08-0.12-1.02 3.19-0.85 4.84-2.14-1.93-0.09 0.98-1.45 0.07-1.78zm-22.01 10.89c-2.36 0.95-4.73 1.89-7.09 2.84 0.53 0.48 2.21-0.11 3.8-0.88 1.6-0.77 3.08-1.7 3.29-1.96zm-38.8-27.68c-0.73 0.59-1.43 1.18-1.32 1.32 1.3-1.2 1.99-1.7 4.17-3.07-0.24-0.17-0.09-0.46-1.49 0.44 0.15 0.13-0.63 0.72-1.36 1.31zm-51.28 4.27c1.74-0.55 8.38-1.89 6.5-1.99-2.47 0.89-3.14 0.46-4.5 0.53 0.37 0.63-2.04 0.87-2 1.46zm94.48 28.57c-1.45 0.92-1.49 0.16-4.04 0.93 0.1 0.41-0.27 0.75-0.65 1.09 2.31-0.27 2.01-0.9 3.97-1.23 0.03 0.17 0.71 0.2 0.81-0.18-0.49 0.1-0.96 0.17-0.85-0.12 0.85-0.18 2.03-0.61 0.76-0.49zm-48.16-35.16c-0.26 0.56-0.51 1.12-0.77 1.68 0.89-0.21 1.45-1.59 0.77-1.68zm-60.26 83.67c0.02 0.01 0.03 0.02 0.05 0.02-0.01 0-0.03-0.01-0.05-0.02-0.06-0.03-0.12-0.06-0.17-0.08-0.04-0.02-0.09-0.04-0.13-0.06-0.01 0-0.02-0.01-0.03-0.01l0.33 0.15zm-0.18-0.08s0.01 0 0 0c0.02 0.01 0.03 0.02 0.05 0.02-0.02-0.01-0.03-0.02-0.05-0.02zm0.05 0.02zm-2.1-0.86c0.03 0.01 0.05 0.02 0.08 0.03-0.04-0.01-0.07-0.03-0.11-0.04-0.02-0.01-0.05-0.02-0.07-0.03-0.01 0-0.03-0.01-0.04-0.01s-0.02-0.01-0.02-0.01c-0.02-0.01-0.04-0.01-0.06-0.02-0.01 0-0.01 0-0.02-0.01 0.02 0.01 0.03 0.01 0.05 0.02l-0.18-0.06c0.02 0.01 0.03 0.01 0.05 0.02 0.12 0.04 0.25 0.08 0.37 0.12-0.02 0-0.03-0.01-0.05-0.01zm173.83 17.73h0.01l0.01-0.01h0.01 0.01c0.01 0 0.01 0 0.02-0.01l-0.06 0.02zm-169.88-15.95c-0.13-0.07-0.24-0.13-0.36-0.19 0.08 0.04 0.16 0.08 0.24 0.13 0.02 0.01 0.03 0.02 0.05 0.02 0.04 0.02 0.08 0.04 0.11 0.06-0.01 0-0.02-0.01-0.04-0.02zm-1.95-0.97c-0.02-0.01-0.03-0.01-0.04-0.02 0.03 0.01 0.06 0.03 0.09 0.04-0.01 0-0.03-0.01-0.05-0.02zm-5.3-1.27v0l0.01-0.01s-0.01 0-0.01 0.01v0zm4.67 1c-0.05-0.02-0.08-0.03-0.12-0.05 0.02 0.01 0.05 0.02 0.07 0.03 0.01 0 0.01 0.01 0.02 0.01 0.04 0.01 0.08 0.03 0.12 0.05-0.03-0.02-0.07-0.03-0.09-0.04zm-2.03-0.76c-0.02-0.01-0.04-0.01-0.07-0.02 0.05 0.01 0.1 0.03 0.15 0.04-0.02 0-0.05-0.01-0.08-0.02zm-2.63-0.25c-0.01 0.01-0.01 0.01-0.02 0.01-0.01 0.01-0.01 0.01 0.01 0 0-0.01 0-0.01 0.01-0.01-0.01 0 0 0 0 0 0.01-0.01 0.01-0.01 0 0 0.01-0.01 0.01-0.01 0 0 0.01-0.01 0 0 0 0zm10.51-44.61c1.05-0.5 2.24-0.85 2.38-0.68 0.06-0.52 0.84-1.17 0.23-1.55-1.14 0.87-1.58 1.14-2.09 1.4s-1.1 0.49-2.55 1.4c1.19 0.16-3.03 3.31 0.57 1.08-0.48-0.44 0.41-1.15 1.46-1.65zm24.75-32.23c-0.93-0.47-4.89-0.65-6.72 0.69 1.02 0.15 3.21-0.49 5.15-0.94-1.85 0.86 1.62 0.83 1.57 0.25zm-30.16 34.26c2.81-1.7 4.62-2.41 6.07-4.16-1.77 1.23-5.83 3.14-6.07 4.16zm146.31 31.14c-1 0.04-1.05-0.27-1.83 0.11-0.29 0.61 0.92 0.24 1.83-0.11zm-114.06-70.89c0.12-0.75-0.32-1.13-0.99-1.33-0.99 0.19-3.98 1.43-2.11 1.12 0.74-0.17 0.83-0.45 1.42-0.64-0.08 0.73 0.38 1.08 1.68 0.85zm-7.98 2.51c1.47-1.57 4.71-1.25 8.03-2.21-0.47 1.74-3.59 2.29-7.13 2.93-0.01-0.44-0.03-0.88-0.9-0.72zm6.62-1.56c-2.68 0.38-3.43 1.51-5.14 1.22-0.77 1.15 6.25-0.5 5.14-1.22zm-14.65 3.63c4.21-3.01 4.37-2.97 9.34-3.31 0.05-0.48-0.46-1.04 0.52-1.38 0.08 0.17 0.18 0.33 0.79 0.13-0.88-0.66-2.47-0.41-4.22 0.22s-3.69 1.57-5.33 2.18c0.83-0.15 1.21 0.03 1.58 0.22-2.01 0.33-4.39 2.06-2.68 1.94zm128.18 70.27c-0.28 0.34-0.14 0.39 0.2 0.39 0.59-0.12 1.08-0.35 1.45-0.56 0.37-0.2 0.62-0.36 0.71-0.21-0.03 0.23-0.89 0.48-1.32 0.7 1.03-0.32 0.87-0.1 1.28-0.14 0.99-0.59 1.33-1.07 1.32-1.49 0.01-0.43-0.4-0.81-0.64-1.2 1.02-0.62 0.6-0.92 1.96-1.22-0.28-0.05-0.37-0.3-0.56-0.44s-0.45-0.17-0.98 0.15c-0.18 0.34 0.15 0.35 0.3 0.46 0.16 0.1 0.13 0.3-0.84 0.92-1.17 0.34 0.08-0.51-0.87-0.48-0.7 0.62-0.94 1.03-1.13 1.44-0.18 0.4-0.34 0.85-0.84 1.32 1.23-0.56 2.06-0.83 2.13-0.59-0.03 0.36-0.56 0.72-1.39 1.06 0.11-0.2-0.08-0.31-0.78-0.11zm36.73 25.99l0.12 0.03c0.01 0 0 0-0.03-0.01-0.03 0-0.05-0.01-0.09-0.02zm-9.05-0.35l-0.02 0.01h-0.01l0.03-0.01zm50.1 22.85c0.68 0.98-3.54 1.24-3.58 2.11l4.55-1.1c-1.02-0.57 2.11-1.86-0.97-1.01zm45.26-19.15c-0.03-0.06-0.07-0.11-0.12-0.15 0 0.05 0.03 0.1 0.12 0.15zm-87.08-3.54c0.03 0.01 0.07 0.02 0.11 0.03-0.02 0-0.03-0.01-0.05-0.01-0.02-0.01-0.04-0.02-0.06-0.02zm56.26 19.4c-2.1-0.05-6.27 1.54-8.26 2.4 0.94 0.27 5.73-0.42 6.17-0.92-3.24 0.09 2.34-1.01 2.09-1.48zm-241.5-37.85zm309.61-1.05c-2.71 0.77-3.25-0.21-6.82 1.22 0.07 0.3 0.15 0.59 0.22 0.89 1.8-0.44 1.46-1.04 3.6-1.45 0.06 0.58-2.37 0.97-1.98 1.58 1.83-1.36 1.66-0.05-0.66 0.53 1.23 0.54 5.3-2.64 5.36-0.75-5.74 1.28-7.81 5.36-13.3 3.87-0.94 0.4-1.03 0.88-2.06 1.27 3.02 0.84 8.64-1.64 9.57 0.21-0.72 0.21-0.66-0.18-0.89-0.36-0.68 0.53-1.34 1.05-1.98 1.58-3.28 0.45-4.25 0.58-8.41 1.32 2.36 0.17 5.01 1.47 7.58-0.33-0.61 0.56 0.54 1.27-1.69 1.7 1.05 0.52 3.94-1.18 2.74-1.8 2.43 0.11 4.34-1.59 6.56-2.38-3.36 2.12 2.15 0.4 3.25 0.23-2.58 2.25-3.58 0.65-7.44 2.05-4.61 2.9-15.5 6.79-20.45 7.48-0.86 0.3-0.5 0.72-0.53 1.11-1.24 0.36-2.48 0.72-3.72 1.08-0.11-0.77 0.73-2.01-0.95-0.67-0.63-0.4-0.58-1.37 2.03-1.53-1.28-1.3-2.39 0.47-5.27 1.21-0.83 1.44 2.17-0.02 1.82 1.05-1.37 0.11-2.33-0.08-3.92 0.18-1.36 0.43-0.23 1.13-1.22 1.61 2.02-0.93 3.8-1.45 5.96-1.71 0.09 0.78-2.67 1.28-3.52 1.96 2.28 0.55 6.46-2.39 8.39-1.48 1.97-0.49 0.32-1.32 2.77-1.77-1.89 2.03 1.67-0.16 3.18 0.01-2.42 1.51-6.15 2.91-6.9 4.56-3.05 0.39-3.36 1.33-5.36 0.92-1.53 0.52 0.09 1.37-1.16 1.91 0.24 0.63 3.2-0.79 4.55-1-1.31 1.33-6.26 2.83-8.03 3.24 1.13 0.65 2.49 1.15 6.33-0.22-4.85 2.12-11.69 2.44-18.08 4.73-1.55 0.51 1.29 0.5-1.32 1.3 1.48 0.18 2.99 0.35 6.21-0.75 1.87 0.34-7.59 1.84-8.16 2.85 0.21 0.3 0.79-0.04 0.75-0.2 2.57-0.57-1.77 1.69 1.69 0.49-4.27 2.15-11.1 1.93-15.98 3.57 2.1-1.99 6.66-1.28 10.45-3.36-4.96 0.2-13.19 2.18-17.44 4.18-1.6 0.22-1.69-0.06-0.92-0.71-5.16 0.82-5.97 2.02-9.08 2.23-0.99 0.55 0.41 0.42-1.35 1.26-1.74 0.24 0.83-0.69-0.92-0.72-4.99 2.8-6.48 1.39-11.13 4.17-2.16 0-3.61-0.49-7.76 0.82 1.58 0 1.53 0.17 0.75 0.42-0.79 0.25-2.31 0.57-3.78 0.87 1.41-0.19 1.8 0.1 2.05 0.24s0.37 0.14 1.13-0.63c1.05-0.14 0.76 0.61 0.96 1.03 2.36-0.31 2.16-1.02 4.52-1.33-0.18-0.33-1.43 0.06-2.34 0.21 3.78-2.04 6.11-0.3 9.34-0.9 0.88-0.25 0.55-0.69 0.61-1.07 1.32-0.38 3.93-0.06 4.56-1.08 1.33 0.11 2.75 0.14 3.31 0.78 5.31-1.96 13.71-3.73 18.1-5.13 2.04 0.7-8.01 2.42-8.28 2.41-1.93 0.52-1.32 1.38-1.18 2.18 1.34-0.89 4.97-1.47 7.54-2.21-1.28 0.88-4.2 1.79-7.12 2.6-2.92 0.79-5.85 1.47-7.15 1.88-1.75 0.11 1.69-1.49 3.64-1.83-0.8-0.13-1.62-0.24-2.45-0.34-1.91 0.42-1.72 1.13-2.88 1.63-1.39 0.1-0.21-0.52-0.16-0.9-1.31 0.2-1.4 0.57-1.42 0.96-4.71 0.34-4.92-0.32-11.63 1.48 0.44 0.14 0.87 0.3 0.91 0.72-2.38 0.16-4.38 1.29-7.01 0.66 1.3 0.85 1.71 0.15-0.57 1.37 2.29-0.22 5.55-0.98 8.39-1.91-0.07 2.31-8.14 1.7-10.57 3.33-0.67-0.13-0.97-0.49-0.99-1.02-3.03 0.77-5.44 1.19-7.54 1.51-2.13 0.32-3.98 0.58-6.39 0.98 1.91 0.29 4.12-0.36 7.96-0.69-0.11 0.38-1.67 0.55-2.83 0.75 1.01 0.34 2.57-0.13 3.67-0.39 1.09-0.27 1.76-0.33 1.15 0.82 1.14-1 2.67-1.33 4.35-1.58 1.69-0.25 3.47-0.41 5.29-1.12 0.02 0.79-2.42 1.17-4.52 1.64 0.07 0.29 1 0.02 1.61-0.05-1.01 0.67-2.54 0.96-4.72 1.31-2.2 0.34-4.99 0.76-8.78 1.45 2.18 0.22 0.94 0.48-1.65 0.72-1.29 0.12-2.98 0.19-4.73 0.22-1.77 0.01-3.6-0.01-5.2-0.07 0.26-0.52-1.41-0.76-1.01-1.3 2.63 0.07 2.26 0.6 2.3 1.09 2.04 0.1 4.02 0.1 5.92 0-2.91-0.31-5.11-0.97-8.1-1.69-0.68-0.05-1.23-0.09-1.68-0.1-0.46-0.02-0.87-0.03-1.17-0.02-0.62 0.02-0.95 0.11-1.22 0.2-0.53 0.18-0.82 0.41-2.78-0.01 1.73-0.29 0.76-0.91-1.3-1.77-2.06-0.87-5.21-2.15-8.07-3.73-0.95 0.23 1.43 1.45 3.41 2.28-1.81 0.01-4.51-1.66-5.54-2.86-0.53-0.57-0.66-0.96-0.16-0.86 0.5 0.09 1.61 0.69 3.69 1.82-0.13-0.43-2.29-1.42-2.06-1.78-3.55-2.03-5.73-3.61-7.77-5.39-0.51-0.47-1-0.94-1.5-1.45s-0.99-1.1-1.5-1.73c-1.01-1.27-2.06-2.86-3.09-4.99-0.37-1.38-0.07-1.15 0.2-0.93 0.28 0.22 0.54 0.43 0.23-0.92-0.33-0.02-0.64-0.13-0.95-0.4-0.32-0.27-0.65-0.7-0.99-1.36-0.69-1.3-1.65-3.53-2.34-7.16-0.11 0.41-0.08 1.28 0.1 2.35 0.21 1.07 0.49 2.33 0.86 3.49 0.38 1.16 0.71 2.23 0.92 2.95 0.2 0.73 0.2 1.13-0.23 0.95-0.73-1.35-1.22-2.68-1.71-3.97-0.43-1.29-0.78-2.57-1.05-3.79-0.5-2.45-0.71-4.76-0.71-6.94 0-4.39 0.65-8.38 1.76-12.82 0.28 0.68 0.68-0.17 1.12-0.92 0.44-0.77 0.88-1.51 1.13-0.85 0.31-0.99 0.2-1.29 0.7-2.43-0.11-0.96-0.58-0.07-1.03 0.83-0.46 0.89-0.86 1.89-1.02 0.9 0.34-0.57 0.85-1.34 1.36-2.23 0.26-0.47 0.51-0.85 0.76-1.26 0.24-0.4 0.49-0.85 0.67-1.2 0.18-0.27 0.05-0.59-0.84-0.88 0.24-0.35 1.11 0.04 1.41-0.41 1.01 0.18-0.49 0.82 0.67 1.07 0.44-0.41 0.45-0.77 0.43-1.04-0.01-0.27-0.02-0.45 0.55-0.62 0.28-0.37 1.26 0.08 1.84 0.05-0.99 0.24-1.09 0.34-0.81 0.42 0.29 0.08 1 0.14 1.74 0.21-1.46 0.34-0.25 0.09-0.79 0.94 0.28 0.02 0.49-0.16 0.8-0.08 0.51-1.02 1.24-1.73 1.58-2.3 0.33-0.57 0.26-0.97-0.98-1.1 2.44-1-0.2 0 0.54-0.88 0.43-0.06 0.87-0.12 1.3-0.18 0.33-0.88 0.35-1.02 1.48-2.54 2.36-0.79 1.16-0.71 2.26-1.79-0.81 0.11-1.23 0.29-1.26 0.23-0.05-0.06 0.36-0.34 0.86-1.18-0.27-0.31-0.93 0.38-1.06 0.73-0.55 0.03-0.45-0.24-0.4-0.55 0.04-0.31 0.01-0.65-0.75-0.6 0.75-0.29 1.13-0.08 1.92-0.37-0.84-0.24-1.19-0.74-1.74-1s-1.3-0.3-2.72 0.39c0.45-0.57 0.09-0.96-0.64-1.02-0.73-0.04-1.78 0.25-2.7 0.97-0.56-0.1-0.24-0.66-1.27 0.25 0.24-0.98-1.65-0.87-2.91-0.09-0.14 0.33 0.08 0.21 0.33 0.12 0.25-0.1 0.54-0.18 0.45 0.21-0.19 0.44-0.42 0.37-0.65 0.31-0.23-0.07-0.48-0.12-0.62 0.31-0.5-0.27-0.03-0.48 0.4-1.27l-0.51 0.01c-0.84 0.23-0.05 0.67-0.55 1.27-0.71-0.23-1.35-0.39-1.88 0.68-0.39-0.16-0.38-0.47-0.05-0.93-0.4-0.05-0.65 0.57-0.7 0.04-0.48 0.25-0.63 0.87-0.67 1.58-0.48-0.01-0.11-1.02-0.02-1.22-0.19-0.02-0.33 0.12-0.44 0.2-0.05 0.04-0.09 0.07-0.14 0.06-0.06-0.01-0.11-0.06-0.16-0.19-0.54 0.2 0.18 0.37 0.08 0.91-0.08-0.05-0.67-0.01-1.1 0-0.46 0.02-0.93 0.05-1.3 0.04-0.35 0-0.61-0.04-0.71-0.12-1.12 0.8-3.97 1.67-3.71 0.44-1.91 0.28-1.34 0.71-2.79 0.46-1.21 0.88-2.29 1.32-1.17 2.07-1.75 0.27-1.59 0.98-2.65 1.42-1.75 0.21-4.19 0.88-4.32-0.03-0.81 0.22-0.5 0.67-0.55 1.05-1.93 0.7-1.88-0.01-3.54 0.5-0.13 0.02-0.22 0.04-0.31 0.06 0.51-0.92-0.37-2.36-4.48-2.03-1.72 0.3 0.66 1.26-1.95 1.42 0.19-0.85-3.46-1.65-3.09-0.45-2.94 0.42-0.25-0.98 1.18-1.57-1.68-0.58-2.81 1.31-3.39 1.83-0.91 0.11-1.56 0.02-1.63-0.5-3.23 2.59-7.37 2.82-9.58 4.96 1.27-1.11-0.26-0.27-0.94-0.67-1.22 0.46 1.18 0.75-1.95 1.54 1.48-2.34-3.11 2.01-3.03 0.29-1 0.58-2.19 1.14-1.88 1.85-1.23-0.08-1.73-0.75-4.58 0.47 0.39 0.16 0.77 0.33 1.6 0.14-0.77 0.59-8.33 2.13-10.16 3.51 2.34-0.79 4.04-0.55 8.2-1.94 1.57 0.14-6.59 1.96-3.94 3.14-1.94-0.79-4.41 1.1-7.57 1.44-1.22 1.06-1.79 2.18-5.65 3.04-0.02 1.08 3.26-0.45 3.34 0.54-3.45 0.5-9.87 2.94-10.58 2.96-1.01-0.42-1.66-2.3-4 0.26 0.18-0.26-2.3-0.88-3.96 0.54-0.75 0.04-1.35-0.49-1.6 0.15-1.92 0.5-0.45-0.94-0.26-1.18-3.45 0.48-2.55 1.82-4.55 1.61-0.89 1.46 3.46-0.92 2.57 0.54-3.05 0.41-5.92 0.59-6.69-0.67-3.08 1.66 0.86 0.85 1.21 1.88-1.11 0.28-2.22 0.55-2.27 0.94-1.15 0.18 0.08-2.17-3.38-0.39-0.49-0.54 1.01-0.86 2.24-1.2-0.82-0.35-1.93-0.47-3.36-0.39-0.02-0.59 2.54-0.87 2.16-1.5-0.08-0.34-2.14 0.32-3.63 0.94-1.49 0.61-2.42 1.16-0.15 0.67-1.69 0.6-4.31 1.05-6.41 0.92-1.43 0.71-0.97 0.91 0.14 0.82 1.11-0.08 2.84-0.48 3.96-0.86-1.08 0.61-2.32 0.99-3.64 1.4-1.33 0.4-2.73 0.85-4.11 1.62-0.36-0.64-0.04-1.18 0.57-1.68-1.81 0.06-3.14 0.4-4.56 0.76s-2.92 0.79-5.13 0.88c-0.25 1.32 2.45-0.85 1.77 0.92-3.05 0.97-1.96-2.06-4.21-0.48-1.4 0.04-0.58-0.61 0.74-0.75 0.22-0.61-0.5-0.68-1.44-0.62-0.68 0.03-2.77 0.33-3.64 0.15-2 0.47-2.95 0.98-1.3 1.32 1.51-0.14 1.09-0.64 1.3-1.01 1.66 0.05 2.37 0.34 2.57 0.9-1.34 0.17-1.94 0.25-2.15 0.35-0.21 0.09-0.03 0.19 0.2 0.3 0.47 0.22 1.18 0.49-0.67 0.9-1.14-0.71-2.12-0.62-3.22-0.52-0.54 0.06-1.09 0.12-1.69 0.08-0.59-0.04-1.19-0.15-1.84-0.49-1.65 0.05-2.26 0.49-1.94 1.09 0.16 0.3 0.54 0.62 1.03 0.87s1.19 0.48 1.89 0.55c-0.5 0-1.16-0.05-1.8-0.08-0.68-0.04-1.38-0.08-2.03-0.12-0.34-0.02-0.67-0.03-0.98-0.03-0.32-0.01-0.66-0.02-0.95 0-0.59 0.02-1.07 0.11-1.37 0.31-0.13-0.04-0.25-0.08-0.37-0.12-0.12-0.05-0.24-0.09-0.34-0.14-0.21-0.09-0.38-0.17-0.51-0.24-0.26-0.14-0.38-0.25-0.38-0.33 0-0.16 0.46-0.18 1.14-0.15s1.47 0.05 2.32 0.12c0.43 0.04 0.81 0.05 1.18 0.07s0.72 0.05 1.03 0.09c-0.31-0.2-0.9-0.42-1.64-0.65-0.41-0.13-0.85-0.28-1.33-0.43s-0.96-0.3-1.55-0.51c-0.56-0.2-1.14-0.41-1.71-0.61-0.62-0.24-1.27-0.51-1.87-0.77-0.31-0.13-0.59-0.25-0.9-0.39-0.32-0.16-0.64-0.31-0.94-0.46-0.61-0.3-1.17-0.59-1.66-0.83-1.37-1.06-1.59-1.39-1.12-1.11 0.24 0.13 0.65 0.4 1.21 0.75 0.51 0.29 1.14 0.64 1.87 1.02 0.35 0.18 0.78 0.41 1.12 0.55 0.36 0.15 0.74 0.31 1.12 0.47 0.39 0.15 0.79 0.31 1.19 0.46 0.36 0.12 0.73 0.24 1.09 0.35 0.37 0.11 0.73 0.22 1.09 0.33 0.37 0.11 0.66 0.17 0.98 0.26 0.62 0.15 1.19 0.3 1.7 0.43 0.23-0.26 0.18-0.49-0.07-0.71-0.27-0.23-0.76-0.45-1.39-0.66-1.23-0.42-3.27-1.01-5.45-1.92-0.58-0.26-1.17-0.55-1.74-0.84-0.28-0.15-0.56-0.29-0.83-0.43-0.28-0.15-0.58-0.35-0.86-0.52-1.13-0.72-2.09-1.37-2.91-2.08-1.58-1.34-2.28-1.91-1.38-0.66-0.78-0.73-1.42-1.57-1.93-2.29-0.5-0.73-0.89-1.39-1.16-1.97-0.53-1.18-0.72-2.04-0.77-2.66-0.11-1.25 0.34-1.54 0.41-2.13-0.23-1.05-0.39-1.96-0.51-2.77-0.09-0.83-0.16-1.58-0.18-2.21-0.06-1.29-0.04-2.22 0-3.11 0.02-0.43 0.05-0.85 0.1-1.29 0.05-0.42 0.11-0.85 0.2-1.33s0.21-0.94 0.37-1.5c0.16-0.5 0.36-1.12 0.61-1.69-0.43 0.12-0.65-0.11-0.7-0.63-0.03-0.26-0.01-0.6 0.04-0.95 0.05-0.36 0.14-0.79 0.25-1.2 0.93-1.14 1.87-2.4 2.72-3.52 0.36-0.48 0.75-0.99 1.16-1.52 0.34-0.46 0.7-0.94 1.06-1.43s0.73-1.01 1.12-1.51c0.4-0.49 0.81-0.98 1.23-1.46s0.86-0.94 1.31-1.38c0.46-0.42 0.94-0.81 1.44-1.16 0.04-0.3 0.36-0.93 0.88-1.72 0.52-0.77 1.25-1.67 2.06-2.57 1.65-1.76 3.71-3.36 5.27-3.5 1.56-2.06 2.38-2.01 2.35-3.08 1.98-0.59 3.96-3.27 5.31-3.53-0.16 1.35-1.3 1.09-3.52 2.92 0.11 0.17 0.22 0.34 0.33 0.51 2.08-1.07 4.07-2.52 6.43-4.16 2.36-1.61 5.07-3.45 8.54-5.11 1.18-1.28-0.3-2.14 3.01-3.7-0.81 3.45 2.77 0.55 7.08-0.49 2.17-1.26-0.96-0.26-0.46-1.13 2.26-0.2 3.88-1.79 2.56-2.55 3.01-0.21 9.46-3.69 9.88-1.37 2.37-1.05 3.31-0.81 6.03-2.17-0.1-0.29-0.19-0.57-0.29-0.87-1.35 0.49-1.45 1-2.87 1.51 1.67-1.56-1.28 0.28-1.14-0.84 3.14-1.59 4.81-1.98 5.49-3.86 2.82-0.91 5.47-1.39 7.53-2.59-0.54 1.22-0.11 0.89 1.2 1.17 1.85-0.97-1.82-0.73 0.2-2.03 2.31-0.89 3.36-0.58 5.18-1.92 0.54-0.03 0.96 0.03 1.43 0.04 0.24 0.01 0.49 0 0.78-0.03 0.26-0.02 0.72-0.14 0.8-0.14 0.35-0.08 0.11-1.42 0.81-0.59 0.25-0.12 0.44-1.21-0.1-0.93 0.24-0.16 0.5-0.31 0.75-0.44 0.13-0.06 0.26-0.12 0.38-0.16 0.1-0.04 0.2-0.06 0.29-0.08 0.38-0.06 0.77 0.05 1.03 0.48 0.83-0.2 1.08-0.6 1.28-0.92 0.21-0.33 0.37-0.58 1.3-0.57 1.45 0.86 1.39 0.44 2.46 1.05-0.43-0.56-0.62-1.03 0.18-1.32 0.24 0.51 0.92 0.47 1.92 0.91 1.44-0.05-0.41 0.38-1.04-0.27-0.25 0.22 0.08 0.36 0.55 0.49s1.09 0.24 1.33 0.44c-0.53 0.33-1.13-0.06-1.71-0.35l-1.47 0.51c0.41 0.23 0.81-0.01 1.22-0.11 1.02 0.54-0.17 0.8 0.65 1.36 0.43 0.13 0.87 0.26 1.34 0.16 0.85-0.37-1.05-0.18-1.31-0.81 2.64-0.43 2.01-0.69 1.85-1.28 1.09 0.71 2.35 0.51 2.38 1.05-0.87 0.18-1.73-0.07-2.53 0.27-0.33 0.12 0.16 0.33 0.34 0.51 1.05-0.01 1.62-0.13 2.14-0.28s1-0.35 2-0.57c0.86-0.45-1.37-0.87-1.77-0.95-0.44-0.62 2.12-0.14-0.66-0.71-0.6-0.33 1.54-0.53 0.6-0.86 0.68-0.11 1.85 0.33 2.27-0.2 1.48 0.32 0.48 0.47 2.11 0.5 0.52-0.39 0.91-0.78-0.51-1.11 1.69 0.31 2.54 0.16 4.15-0.65 1.41 0.31-0.46 0.84 0.23 1.24 0.85-0.28 1.02-0.46 1.38-0.59s0.9-0.2 2.57-0.33c0.16-0.28-0.7-0.37-1.71-0.42-1.02-0.05-2.19-0.06-2.76-0.13 1.63-0.75-3.18-0.81-2.12-1.18-2.17-0.04-2.96 0.45-4.19 0.7-1.04-0.26-1.05-0.43-1.15-0.59s-0.28-0.34-1.83-0.55c1.41 0.15 2.69 0.14 4.12 0.05 1.42-0.09 2.97-0.27 4.78-0.36-0.44 0.24-1.51 0.22-1.88 0.47 0.99-0.19 1.67-0.15 2.35-0.08 0.69 0.07 1.39 0.17 2.58 0.06-0.66-0.31-2.94-0.43-3.24-0.73-1.84 0.25-5.69 0.14-4.12-0.33 1.32 0.02 2.81-0.05 4.33-0.09 1.51-0.04 3.05-0.02 4.24 0.24 1.17-0.44-0.82-0.48 0.28-0.9 0.56 0.08 1.09 0.17 1.66-0.02 1.54 0.06 1.21 0.24-0.16 0.47 1.47-0.21 4.3-0.24 4.79 0.02 0.35-0.33-0.51-0.46-1.04-0.63-0.53-0.18-0.74-0.36 0.97-0.92-2.33 0.04-6.67 0.55-3.2-0.02 0.13-0.17-1.54-0.02-1.17-0.22-1.55 0.15-1.67 0.51-4.13 0.48-0.22 0.18-1.31 0.45-2.08 0.66s-1.22 0.39-0.31 0.51c-1.99 0.01-7.09 0.12-8.15 0.05-1.59 0.03-1.09 0.31-2.64 0.3 0.6 0.03 1.01 0.14 0.93 0.27-0.09 0.16-0.85 0.31-2.6 0.23 2.17-0.25-2.05-0.28-1.4-0.43-0.64 0-0.88 0.03-1.65 0.01-0.52 0.1 1.26 0.17 2.61 0.26-0.98 0.06-3.25-0.1-4.62-0.13 0.73-0.12-2.34-0.08-1.13-0.19-1.62-0.06-0.6 0.07-1.11 0.09-1.67-0.1-0.62-0.1-2.01-0.16 1.12 0.02 1.8 0.04 2.36 0.05-0.54-0.08-4.08-0.13-4.43-0.14 1.19-0.01 2.33 0.06 2.38 0.01 1.86 0.01 1.6 0.07 2.88 0.13 0.76-0.01 0.37-0.07 1.29-0.18-2.55-0.02-0.87 0.1-3.37 0.05 0.28-0.04-0.49-0.05-2.31-0.02 2.05-0.02 3.41-0.1 3.93-0.2 0.51-0.1 0.11-0.17-1.52-0.06 1.69-0.16 0.66-0.16 2.38-0.39 1.52-0.15 1.09-0.03 0.57 0.07s-1.13 0.18-0.18 0.12c2.69-0.23 2.41-0.41 1.61-0.42 4.09-0.46 3.23-0.32 6.59-0.53 0.58-0.18-0.52-0.08-1.71 0.04 2.25-0.41 3.47-0.44 3.36-0.27s-1.42 0.45-3.97 0.62c-1.19 0.26 0.35 0.16 1.2 0.19 1.19-0.08 1.66-0.3 0.44-0.2 0.86-0.15 1.62-0.19 2.44-0.2 0.83-0.02 1.71 0 2.97-0.12 0.06 0.26-2.13 0.37-2.03 0.6 2.13-0.29 2.95-0.51 3.45-0.71 0.52-0.2 0.72-0.4 1.82-0.83 0.77 0.01 1.11 0.1 1.32 0.21 0.8-0.09 1.17-0.22 2.13-0.3-0.75-0.32-1.72-0.2 2.88-0.82-2.84 0.55-2.2 0.59 0.75 0.07 1.52-0.6-0.78-0.3 0.16-0.79-4.12 0.48-5.55 1.06-7.85 1.49-1.6 0.08-0.82-0.04 0.22-0.24 1.04-0.19 2.35-0.47 1.68-0.6-4.43 0.58-3.56 1.09-7.03 1.5 0.4-0.2 1.13-0.42 2.61-0.68 0.76-0.35-4.72 0.67-2.65 0.06-3.12 0.53-2.66 0.8-6.7 1.24-0.18-0.09 0.8-0.37 1.63-0.67 0.82-0.29 1.47-0.58 0.51-0.42 4.24-0.96 2.6-0.63 6.68-1.51-0.66 0.03-2.34-0.13 1.43-0.88 0.16-0.28-0.69-0.2-1.39-0.16s-1.25 0.05-0.65-0.45c-1.75 0.62-1.86 0.8-1.78 0.93 0.09 0.13 0.37 0.22-0.53 0.54-1.55 0.39-1.27 0.17-1.02-0.06 0.25-0.24 0.46-0.48-1.07-0.02 2.08-0.72 3.82-1.44 6.51-2.36 0.02-0.32-1.46 0.1-1.38-0.22-2.05 0.58-3.39 1.53-4.28 1.46-0.46-0.3 1.67-0.54 3.02-1.31-0.28-0.05-1.99 0.61-3.25 1.05 0.43-0.37 0.45-0.48 0.51-0.61 0.05-0.13 0.15-0.27 0.57-0.63-1.68 0.68-1.75 0.79-1.73 0.87-1.71 0.69-1.45 0.49-1.1 0.27 0.35-0.23 0.79-0.49-0.36 0.03 0.03-0.07 0.68-0.34 1.46-0.66s1.7-0.7 2.16-0.99c-0.89 0.31-2.3 0.84-3.23 1.19-0.93 0.34-1.38 0.48-0.53-0.02 1.81-0.88 0.79-0.17 1.43-0.39 0.87-0.49 0.63-0.52 0.16-0.42s-1.17 0.33-1.35 0.38c-1.85 0.96 0.06 0.26-2.86 1.64 1.02-0.66 3.01-1.84 3.92-2.52 0.94-0.68 0.75-0.84-2.01 0.47 0.42-0.32 1.77-1.09 1.71-1.19-0.41 0.07-2.32 1.34-2.9 1.58 0.1-0.23 1.15-0.97 0.38-0.76 0.73-0.19 1.54-0.72 2.24-1.24s1.29-1.01 1.91-1.13c2.18-1.27 0.7-0.78 1.74-1.53-0.61 0.19-0.66 0.49-1.77 1.17 0.64-0.96-1.22-0.69-1.68-0.61 1.16-0.81 1.64-0.98 1.98-1.01 0.35-0.03 0.55 0.06 1.32-0.25 0.46-0.53 0.07-0.67-0.62-0.66-2.01 1.27-1.86 1.12-2.6 0.9-0.01 0.62-1.48 1.97-2.82 2.26-0.75 0.68 0.46 0.17-0.05 0.68-0.99 0.74-1.15 0.77-1.21 0.65-0.06-0.11-0.05-0.36-0.56-0.19 0.46-0.34 0.95-0.67 0.78-0.74 0.88-0.66 1.46-0.67 2.55-1.56 0.43-0.52 0.16-0.46-0.17-0.35-0.34 0.12-0.73 0.31-0.67 0.08 0.2-0.85 0.82-0.11 1.18-0.43 1.21-1.03-1.4 0.01-3.05 0.94-0.18 0.31-0.38 0.62-0.2 0.68-0.64 0.51-0.56 0.27-0.41-0.09s0.37-0.85 0.17-0.87c1.12-0.93 1.51-0.74 1.91-0.53 0.72-0.87-0.27-0.69-0.69-0.9-0.56 0.55-2.17 1.46-3.28 1.97 0.33-0.3 0.66-0.6 1-1.08-0.48-0.07-0.93 0.17-1.28 0.79-0.07-0.39 0.07-0.97-0.79 0.1-0.16-0.15 0.21-0.66 0.43-1.07s0.24-0.72-0.7-0.48c-0.06 0.4 0.05 0.64 0.56 0.56-1.08 0.45-1.86 1.27-2.95 1.33 1.16-2.25-2.54-0.87-3.89-0.34 0.09-0.57-0.21-0.61-0.69-0.53-0.13 0.02-0.26 0.04-0.39 0.06-0.24 0.04-0.47 0.08-0.69 0.11-0.43 0.05-0.77 0.05-0.92-0.07 0.27-0.1 0.55-0.19 0.82-0.27l0.78-0.22c0.3-0.09 0.6-0.17 0.84-0.21 0.51-0.09 1.01-0.11 1.49-0.15 0.97-0.08 1.81-0.18 2.79-0.89-0.13 0.27-0.42 0.37-0.49 0.7 0.87-0.14 1.73-0.25 2.59-0.37-0.33-0.29-0.51-0.4-0.76-0.47s-0.56-0.1-1.25-0.19c0.22-0.46 0.97-0.41 1.53-0.54 0.22-0.73-1.51 0.09-2.1 0.01-0.86 0.01-0.09 1.43-1.24 1.13-0.04-0.5 0.41-0.6 0.49-1.01-1.37-0.23-0.8 0.98-1.88 0.92 0.92-1-0.42-0.47-0.71 0.11-0.21-0.11-0.2-0.29-0.29-0.45-0.1-0.16-0.25-0.3-0.93-0.26-0.61 0.23 0.07 0.53 0.47 0.53-0.01 0.15-0.14 0.22-0.37 0.24-0.11 0.01-0.24 0.01-0.37-0.01-0.15-0.01-0.43-0.01-0.62-0.03-0.83-0.08-1.38-0.36-0.33-0.81-3.2 0.92-5.8 1.15-8.04 1.5-2.23 0.39-4.11 0.87-5.85 2.23-0.18-0.52 0.8-0.83 0.54-1.36-0.64 1.04-4.94 1.31-6.78 0.55 0.93 0.13 2.66-0.26 4.48-0.68 0.38-1.25-3.96 0.63-3.21-0.87 1.58 0.49 4.48-0.26 4.35-1.55 2.55 0.02 2.41 0.09 6.06-0.37-0.75-0.39-2.67 0-3.84-0.11 0.53-0.77 3.18-1.2 4.32-1.84-1.13-0.24-1.26-0.95 1.36-1.19 0.04-0.68-2.67 0.36-3.78 0.44-1.9 0.48 1.1 0.3 0.18 1.2-2.03 0.71-3.56 1.51-5.79 2.18 0.59-1.57 2.3-2.14 5.05-2.02-1-0.88-3.07-1.07-6.93-0.07 2.34-0.02 1.01 0.56-0.6 0.94-1.61 0.37-3.51 0.61-2.37-0.27-0.74 0.17-1.48 0.35-2.23 0.52-1.52 0.54 1.26 0.64-1.43 0.65-1.02 0.35 0.03 0.55 0.84 0.43 0.46 0.75-2.71 0.94-2.8 1.59-0.54-0.04-1.34-0.89-0.32-1.79-3.21 0.61-0.8 1.03-2.06 1.42-1.52 0.04-2.16-0.45-5.39 0.12 0.99 0.88 4.96-0.4 4.87 1.26-1.43-0.78-5.05 0.01-5.67-1.36-3.52 1.44-2.92 0.25-5.91 1.54-0.64 1.72 2.89 0.41 3.38 1.31-1.3 0.64-2.65-0.26-2.94 0.77-0.69-1.07-2.53-2.15-6.38-0.73 0.1-0.04 1.03 0.87 0.13 0.6-0.99-0.29-2.4 0.07-3.98 0.56-1.57 0.5-3.3 1.17-4.95 1.42 1.03-1.3 3.31-1.43 5.79-2.04 0.78-0.29 0.37-0.73 1.34-1.01-3.14 0.26-7.44 1.92-9.53 2.83-0.94-0.27 1.46-1.18 4.36-2.05 1.44-0.45 3.02-0.85 4.36-1.14 1.34-0.3 2.45-0.51 2.95-0.55-0.11 0.37-1.42 0.61-1.34 1.01 1.93-0.24 4.68-0.84 5.82-1.95-0.31-0.34-1.89 0.27-3.01 0.53 0.12-0.36 2.6-1.15 5.57-1.87 2.97-0.74 6.41-1.54 8.43-2.14-1.42-0.4-4.34 0.75-6.23 0.04-1.56 1.49-4.57 1.06-7.29 2.58 0.34-1.21-2.22-0.79-3.15-0.06 0.49 1.11 2.5-1.06 2.42 0.26-1.86 0.42-3.94 0.61-6.21 0.96-2.26 0.36-4.7 0.94-7.26 2.03-0.33-0.41 0.57-0.72 0.52-1.11-0.33-0.33-1.91 0.32-3.02 0.6-0.15 0.59 0.71 0.39 1.62 0.15-0.94 0.49-1.91 0.88-2.96 1.22-1.04 0.35-2.14 0.66-3.34 0.95-2.39 0.6-5.17 1.1-8.52 1.98 3.85-2.8 12.27-3.37 15.92-6.08 1.82-0.08 1.3 0.38 1.1 1.25 1.92-0.79 1.94-1.76 3.33-2.6 1.82-0.61 2.4-0.2 3.84-0.48-0.45 1.19-1.66 0.49-2.83 1.44 0.27 0.35 6.25-1.03 5.12-1.77-0.57-0.55-1.07 0.68-2.29 0.33 1.77-1.26 5.4-2.31 7.11-3.58-0.54 0.71-2.18 1.53-0.43 1.7-0.17-0.94 5.71-2.55 4.17-2.68 0.08-0.76 2.09-0.19 2.36 0.02 2.2-0.78-0.84-0.45-0.23-1.19 1.71 0.32 3.28-1.13 4.55-0.86-1.34-0.79-4.95 0.79-6.17 0.65 3.82-1.55 7.25-1.91 10.63-2.04 2.22-1.79 4.26-0.92 7.44-2.36-0.68-0.84-2.08 0.06-3.83 0.57 0.25-0.73-1.17-0.32-2.36-0.07 1.11-0.64 3.11-1.16 4.89-1.4 1.79-0.21 3.35-0.12 3.57 0.41 2.82-1.16 6.08-2.01 9.19-2.59 1.56-0.28 3.07-0.55 4.46-0.79 1.41-0.25 2.61-0.47 3.82-0.76-0.84 0.64-1.98 0.94-3.52 1.24-1.53 0.3-3.43 0.58-5.61 1.13 1.66 0.51 5.09-0.45 8.34-1.24 1.69-0.42 3.39-0.74 4.7-0.82s2.23 0.1 2.45 0.74c1.35-0.64 1.44-1.61 2.74-2.31-0.69 0.4 0.4 0.66 1.68 0.59 1.28-0.08 2.81-0.45 3.24-1.4 1.02 0.06 1.22 0.48 1.06 1.08 1.93-0.23 2.7-0.87 3.67-1.46-1-0.41-2.65 0.6-3.77-0.06-0.07-0.52 0.92-0.71 1.97-0.9-0.77-0.37-2.3-0.41-4.11-0.27-1.81 0.16-3.89 0.47-5.76 0.7-0.56 0.07-1.11 0.13-1.62 0.18 1.54-0.31 2.78-0.68 3.43-1.18 0-1.14-3.7-0.53-5.34-0.95 1.23-0.32 2.84-0.34 4.22-0.22s2.52 0.37 3.01 0.54c1.62-0.37-0.9-0.92 3.08-1.44-2.58 0-4.13-0.51-5.19-1.28-1.98 0.76-3.93 1.02-6.08 1.24-1.07 0.11-2.2 0.2-3.37 0.37-0.28 0.04-0.57 0.09-0.86 0.13-0.27 0.05-0.54 0.09-0.81 0.14-0.46 0.09-0.93 0.19-1.41 0.32-0.69-0.53-2.09-1.32-1.05-1.97 3-0.41-0.44 1.28 1.77 1.52 0.8-0.11 1.8-0.33 2.58-0.51 0.81-0.19 1.5-0.35 2.14-0.5 1.29-0.3 2.44-0.53 4.1-0.55 0.97-0.38 1.63-0.83 2.21-1.29 0.47-0.89-5.9 1.27-4.11-0.24 2.13 0.02 3.5-0.25 4.9-0.64 1.39-0.38 2.8-0.88 4.83-1.29 0.16-0.8-1.76-0.66 0.53-1.63-0.93 0.1-1.1 0.31-1.22 0.51-1.37 0.16-1.05-0.11-0.08-0.44 0.96-0.32 2.58-0.74 3.67-0.75 0.32 0.65-1.04 1.43-2.19 2.15-1.15 0.71-2.08 1.29-1.13 1.45-0.08 0.29-1.33 0.35-2.62 0.5s-2.61 0.38-2.7 1c2-0.43 3.87-0.53 5.56-0.42 1.7 0.09 3.19 0.53 4.56 0.99 1.63-0.29 1.17-0.52 0.81-0.72s-0.6-0.37 1.61-0.54c0.79-0.84-4.55 0.79-2.49-0.58 2.12-0.64 3.47-0.52 3.93-0.11 0.47 0.4 0.08 1.09-1.01 1.55 2.21-0.05 1.1 1.25 4.75 0.56 1.37-0.4 2.21-0.94 2.79-1.58 3.08-0.17 6.93-0.26 10.44-0.54 0.14-0.45-2.16-0.58-4.86-0.41-2.7 0.18-5.71 0.64-6.74 1.39-1.09-0.05-1.26-0.47-0.98-1.08 0.73 0.09 1.44 0.17 1.94-0.27 0.38-0.31-0.15-0.27-0.75-0.2 0.28-0.39 0.94-0.46 1.37-0.33 0.43 0.14 0.63 0.45 0.08 0.77 0.89-0.26 1.81-0.52 3.11-0.65-1.61-0.54-3.29-1.11-2.67-2.48 2.75-0.43 2.14-0.6 1.56-0.87-0.29-0.13-0.6-0.24-0.45-0.41s0.75-0.4 2.22-0.65c-1.09-0.06-4.1 0.22-3.22-1.15 3.75-0.88 5.61-0.72 11.12-1.18-1.55 0.59-3.01 0.78-4.4 0.91-1.38 0.13-2.69 0.2-3.82 0.51 0.69 0.23 1.6 0.59 2.83 0.73s2.78 0.07 4.93-0.57c-0.06-0.42-1.14-0.17-2.28 0.08s-2.34 0.5-2.76 0.11c2.74-1.01 7.11-1.2 9.96-1.3-3.45 0.65-2.69 0.86-1.79 0.99 0.91 0.13 1.98 0.17-0.62 0.48 0.39 0.43 1.92 0.41 4.41 0.22 0.98-1.19-1.4-1.05 1.56-2.31 0.17-0.3-0.15-0.37-0.66-0.33-0.52 0.04-1.27 0.22-1.94 0.36-1.33 0.3-2.38 0.53-1.02-0.33 3.54-0.42 5.31-0.5 7.17-0.68s3.72-0.35 7.12-0.67c-2.55 0.67-3.77 1.22-5.05 1.81-1.27 0.59-2.6 1.2-5.18 1.99 3.68-0.41 6.67-1.17 10.84-1.4 0.05-0.57-0.06-1.11 0.63-1.87 0.88-0.02 1.45 0.03 1.73 0.18 0.24 0.18 0.28 0.4 0.23 0.64-0.09 0.48-0.53 1.03-0.45 1.45 2.32-0.15 4.75-0.39 3.37 0.73 1.86 0.16 1.68-1.43 4.02-0.88-1.68 0.38-1.1 0.48-1.46 0.92 0.74 0.03 1.34-0.05 1.94-0.13 0.3-0.04 0.61-0.08 0.93-0.1 0.16-0.01 0.34-0.02 0.49-0.02 0.14 0.01 0.29 0.03 0.45 0.06 0.3-0.19 0.33-0.34 0.21-0.46-0.15-0.11-0.52-0.16-0.92-0.21-0.81-0.1-1.81-0.16-2.03-0.39 2.41-0.57 0.53-0.39 1.93-1.23 0.84-0.03 0.64 0.15 0.4 0.34 1.09-0.02 0.97-0.29 0.48-0.3 0.83-0.32 2-0.28 2.62-0.05 0.08 0.03 0.15 0.06 0.21 0.09 0.04 0.04 0.07 0.09 0.09 0.14 0.04 0.09 0.03 0.19-0.02 0.3-0.11 0.2-0.41 0.41-1 0.6 3.74 0.04 0.35-0.76 2.93-1.75 1.39 0.25 2.77 0.51 4.16 0.76-1.63 0.82-3.35 1.52-5.68 1.2-0.46 0.35 0.88 0.42 1.62 0.58 0.38-0.33 1.54-0.38 2.99-0.31 0.73 0.04 1.52 0.11 2.34 0.19 0.4 0.04 0.81 0.09 1.22 0.13 0.2 0.02 0.4 0.05 0.6 0.07 0.19 0.02 0.35 0.06 0.52 0.09-0.09 0.33 0.89 0.54-0.18 0.95 2.07 0.5 4.02 0.73 5.87 0.88 0.26-0.67-3.57-0.82-4.81-0.98 0.28-0.27 0.48-0.53 0.31-0.76-0.08-0.12-0.26-0.23-0.56-0.33-0.16-0.05-0.33-0.1-0.57-0.14-0.26-0.03-0.56-0.06-0.91-0.09 0.64-0.31 1.35-0.5 2.13-0.58 0.72-0.07 1.42 0 2.18 0.19 0.33-0.22 0.35-0.41 0.11-0.6-0.25-0.18-0.68-0.36-1.59-0.47 1.29-0.55 2.71 0.58 3.96 0.73-3.81 0.73 0.46 1.04-2.09 1.44 1.77 0.85 2.79 0 4.34 0.46-0.82 0.3-0.08 0.44 0.78 0.61 0.8 0.18 1.69 0.42 1.37 0.82-0.73 0.04-0.78-0.12-0.97-0.33-0.19-0.2-0.47-0.43-1.84-0.41-0.02 0.22-0.04 0.43-0.64 0.67 0.99 0.2 1.9 0.43 2.85 0.7 0.68-0.15 1.8-0.25 3.89 0.63-0.67-0.08-1.86 0-1.06 0.41 0.59-0.19 2.55 0.17 4.11 0.01 0.54 0.27 0.39 0.39 0.22 0.48-0.39 0.03-0.1 0.27 0.21 0.51-0.98-0.27-2.18-0.77-3.04-0.58 1.46 0.66 2.56 0.9 3.68 1.25 1.1 0.41 2.28 0.87 3.57 3.02 0.09-0.04 0.1-0.25 0.06-0.54-0.04-0.3-0.15-0.65-0.3-0.97-0.29-0.69-0.74-1.21-1.06-1.17 0.66-0.89 1.74 0.8 2.01 2.81 0.12 0.99 0.06 1.96-0.23 2.42-0.21 0.33-0.48 0.36-0.89 0 0.37 0.48 0.7 1.03 0.97 1.65 0.38 0.92 0.6 1.96 0.66 3 0.13 2.09-0.45 4.08-1.08 5.35-0.18-0.08-0.15-0.56-0.08-1.17 0.06-0.61 0.16-1.37 0.14-1.99-0.75-0.01-0.96 1.44-1.46 2.61 0.33-0.21 0.47 0.34 0.51 1.09s-0.03 1.71 0.04 2.4c0.42-0.16 0.74-1.33 0.98-2.23 0.19 0.46-0.09 1.94-0.74 3.59-0.64 1.66-1.66 3.46-2.55 4.89 1.27-1.11 2.48-2.86 3.41-5.07 0.79 0.35 0.4 1.31-0.46 2.53-0.85 1.22-2.19 2.69-3.03 4.12-0.8 0.25-0.39-0.36 0.05-1.04-1.66 1.47-2.96 3.32-4.33 4.71-1.43 1.41-2.81 2.65-4.85 3.01 0.69-0.59 1.37-1.17 2.05-1.76-1.22-0.3-3.13 1.38-5.96 3.09 0.4 0.21 0.93-0.03 1.5-0.42 0.53-0.39 1.07-0.93 1.59-1.32-0.47 0.72-0.09 1.1 1.67 0.83-0.35 0.46-0.87 0.91-1.34 1.35-0.48 0.45-0.99 0.89-1.54 1.33s-1.12 0.88-1.75 1.32l-0.48 0.33-0.55 0.34c-0.38 0.22-0.76 0.45-1.15 0.68 2.73-1.09 3.01-0.25 4.69-0.78 0.25 0.84-3.65 1.49-5.3 3.21 0.7-1.18 1.59-2.03-1.63 0.38-1.4 0.7-0.91 0.28-0.04-0.39 0.88-0.67 2.2-1.59 2.65-1.92-1.21 0.14-2.82 1.72-3.88 1.22 1.55-0.51 1.99-1.08 2.39-1.61 0.2-0.27 0.38-0.52 0.68-0.77 0.15-0.12 0.33-0.24 0.55-0.36 0.2-0.12 0.45-0.23 0.76-0.35-0.87 0.26-1.58 0.55-2.18 0.87s-1.09 0.69-1.57 1.09c-0.47 0.4-0.98 0.84-1.53 1.32-0.58 0.48-1.21 0.99-2.24 1.53-1.1 0.03-0.36-0.5 0.22-0.49 1.88-1.13-3.44 0.17-0.08-1.44-0.71 0.09-1.44 0.22-2.22 0.51-0.39 0.14-0.8 0.33-1.22 0.56-0.45 0.24-0.94 0.53-1.46 0.89-0.24-0.06-0.02-0.26 0.36-0.5 0.19-0.12 0.41-0.25 0.64-0.38 0.21-0.13 0.41-0.27 0.59-0.39-0.35 0.02-0.75 0.17-1.17 0.38-0.45 0.21-0.93 0.48-1.41 0.75-0.96 0.55-1.93 1.11-2.68 1.19 0.65-0.75 1.36-1.49 1.7-2.11 0.26-0.63 0.19-1.13-0.65-1.39-1.82 0.83-1.29 0.98-0.83 1.16 0.48 0.18 0.84 0.38-1.32 1.28-0.46-0.06 0.49-0.5 0.94-0.8-1.98-0.26-5.26 2-6.92 1.05l-2.87 1.39c6.26-1.26 12.28-2.05 6.57 0.94 0.34 0.05 0.68 0.1 1.01 0.15 2.11-0.13 2.01-1.34 3.59-2 1.34 0.55 3.49-0.65 5.39-1.4 1 0.16-0.72 1.17-2.57 2.22-1.33 1 1.66-0.43 0.8 0.62 3.13-0.43 3.78-2.8 6.33-2.45-1.38 0.82-2.53 1.55-3.5 2.23-0.48 0.34-0.93 0.67-1.33 0.98-0.43 0.32-0.72 0.63-1.18 0.92-1.41 0.39-1.64 0.18-1.58-0.19 0.01-0.09 0.05-0.19 0.09-0.29 0.02-0.1 0.03-0.21 0.05-0.32 0.03-0.21 0.03-0.4-0.09-0.52-0.24 0.29-0.49 0.57-0.85 0.83-0.39 0.26-0.82 0.52-1.29 0.77-0.94 0.5-2.02 0.97-3.19 1.44-1.18 0.47-2.42 0.94-3.76 1.44-1.4 0.49-2.84 1-4.29 1.59 0.6 0.09 1.01 0.1 1.25 0.1-0.26 0.06-0.69 0.22-1.23 0.56-1.06 0.68 0.72 0.61 2.05 0.78 0.67 0.09 1.22 0.24 1.21 0.6 0 0.18-0.15 0.41-0.48 0.72-0.35 0.3-0.84 0.68-1.71 1.14-0.78-1.32-5.4 1.26-7.99 1.81 1.7-1.12 1.76-1.9 1.44-2.6 1.86-0.42 2.9-0.85 3.69-1.62-0.62-0.19-0.96 0.17-1.31 0.47-0.36 0.3-0.76 0.52-1.34 0.06-2.04 0.96-2.85 1.72-6.11 2.92 0.99-0.08 2.55-0.74 3.04-0.3-0.86 0.61-1.68 1.05-2.49 1.36-0.82 0.32-1.66 0.51-2.52 0.67-1.73 0.32-3.59 0.49-6.05 1.16-1.91-0.23 1.54-1.18 3.14-1.89-0.68-0.36-1.86 0.09-2.96 0.59s-2.12 1.06-2.39 0.87c-0.95 0.44-0.01 0.66-1.28 1.14 0.14 0.49 1.34 0.11 2.53-0.33 0.41 0.12-0.46 0.74-1.15 1.21-0.68 0.47-1.11 0.81 0.4 0.39-0.34 0.62-1.37 0.87-2.39 0.94s-2.03-0.04-2.46-0.09c-2.23 0.94-3.79 1.82-5.53 2.7 1.76-0.4 1.08 0.26 0.53 0.81s-0.95 0.98 1.58 0.03c0.04 0.89-4.78 2.34-6.94 3.5-1.62 0.13-1.1-0.4-0.36-1.05s1.7-1.41 1.14-1.81c-3.47 0.86-0.28 1.14-3.74 2.01 0.5-1.26-1.82-0.4-4.31 0.6 0.16-1.45-1.42-0.71-3.61 0.48-0.14 0.07-0.28 0.15-0.42 0.23-0.15 0.08-0.29 0.16-0.38 0.22-0.22 0.13-0.44 0.27-0.66 0.4-0.45 0.27-0.9 0.54-1.36 0.77-0.91 0.47-1.81 0.83-2.59 0.87-0.44 1.25 2.36-0.36 3.75-0.73-0.44 1.47-4.25 1.3-6.24 2.96 0.92-0.85 1.85-1.68 2.4-2.52-0.27-0.25-1.49 0.33-1.61-0.05-1.19 1.92-4.1 4.74-7.93 4.99 1.52-2.24-1.47-0.99-2.78-1.19 1.91-1.02 1.96-0.31 3.61-1.1-1.68-0.7-4.24 0.86-4.83 2.23 0.28 0.24 1.47-0.36 1.6 0.02 2.68-0.75-4.94 1.65-1.11 1.42-0.04 0.91-2.18 0.91-1.59-0.01-1.63 0.67-1.86 1.34-4.05 2.01-0.03 0.8 3.09-1.47 2.38 0-1.16-0.03-3.64 1.2-5.59 2.05 1.17-0.02 3.21-0.9 3.25 0.23-1.66 0.23-3.23 0.41-5.75 1.53 0.67-1.34-1.64-0.83-4.1 0.31-2.47 1.14-5.07 2.91-5.25 3.83-1.33 0.6-1.59-0.08-2.94 0.52-0.92 0.85-0.12 1.55-0.46 2.34-3.67 0.98-1.48-1.43-2.1-2.65-2.07 1.08-1.03 1.85-1.8 2.8-0.98 0.59-2.39 1.29-2.28 1.75-0.22-0.47-0.83-0.61-1.68-0.37-0.83 0.27-1.93 0.92-3.06 2.06 0.9-0.54 1.26-0.37 2.81-0.81-0.37 0.34-0.62 0.73-0.7 1.06 0.57-0.24 1.06-0.47 1.23-0.65 0.59-0.2 0.69-0.04 0.77 0.13-0.08 0.28 0.33 0.21 0.76 0.13-0.07 0.28-0.58 0.49-1.28 0.66 0.16 0.34-2.36 1.42-0.27 0.89-0.13 0.12-0.23 0.22-0.32 0.31 1.21-0.17 2.17-0.36 3.04-0.5 1.2-0.2 2.24-0.29 3.58-0.06 1.34-0.47 1.66-1.11 3.46-1.55-0.18-0.23-0.86-0.09-1.22 0.13 0.96-1 3.34-1.65 6.17-2.31 3.06-0.69 6.63-1.36 9.37-2.25 0.23-0.83 0.59-1.61 2.82-1.18 1.04-0.46-0.38-0.29-0.21-0.89 1.73-0.43 1.6 0.61 3.84-0.24-0.15 0.77-3.55 1.23-5 1.85 0.93 0.44 4.58-1.27 6.6-1.71 0.24-0.9-0.56-0.97-2.4-0.21 0.17-1.05 4.1-1.76 5.6-2.71-1.41 1.14 0.35 0.58 2.34-0.1-1.16 1.49 1.4 0.64 3.31 0.55-0.23-0.51 0.09-2.68 4.04-2.86-0.31-0.47-1.45-0.27-3.09 0.34 0.1-0.38 1.41-0.66 1.32-1.05 0.98 0.05 1.56 0.42 3.85-0.58-0.3 0.56-0.97 1.08-1.99 1.58 0.74 0.24 2.49-0.32 3.85-0.57-0.17-1.21-1.11 0.45-2.37 0.11 1.69-0.94 2.54-1.59 1.18-1.65 0.1-0.38 1.42-0.67 1.33-1.06 2.57-0.42 2.18 2.51-3.03 3.82 0.71 0.15 1.17 0.48 1.11 1.25 1.44-1.43 0.99-2.08 5.04-2.22 1.3-1 0.45-0.73 2.9-1.22-0.16-0.25-0.54-1.97-1.33-2.13-0.26-0.54 6.19-1.98 2.79-1.81 4.5-1.52 7.7-2.4 10.91-3.34 1.6-0.48 3.22-0.96 5.02-1.54 0.9-0.29 1.84-0.61 2.86-0.96 1.02-0.34 2.11-0.72 3.29-1.15-0.06 1.26-3.87 2.1-5.91 3.17 0.46 0.13 0.91 0.26 0.97 0.68 0.64-0.42 1.66-0.81 3.02-1.14-1.57 1.07 0.88 0.79-0.47 1.7 1.04-0.28 2.07-0.55 3.1-0.82-3.14 0.27 1.67-2.32-2.03-1.98 0.25-0.27 1.76-0.71 3.15-0.93 1.4-0.22 2.7-0.19 2.49 0.41 6.15-2.34 10.37-2.95 14.01-5.38-1.36 1.57 4.7 0.07 8.36-0.22-2.9 0.03 2.25-0.23 1.46-1.84 0.24 0.37 1.87 0.33 3.38 0.13 1.5-0.21 2.84-0.66 2.44-1.28l1.96-0.27c0.84-0.11 1.77-0.19 2.65-0.28 1.78-0.17 3.57-0.34 5.35-0.51-0.89 0.69 0.24 0.95 2.41 0.99 2.16 0.12 5.4-0.04 8.95-0.33-1.69-0.43-5.6-0.24-4.62-1.36 0.99-0.06 1.94-0.12 2.86-0.18 0.91-0.05 1.8-0.14 2.61-0.12 1.64-0.01 3.15-0.01 4.56-0.02 1.41 0 2.74-0.01 4 0.02 1.22 0.09 2.38 0.17 3.54 0.25 1.15 0.09 2.28 0.18 3.44 0.27 0.57 0.06 1.18 0.08 1.74 0.17 0.55 0.1 1.11 0.2 1.69 0.3 1.15 0.21 2.35 0.43 3.65 0.67 0.65 0.12 1.32 0.24 2.01 0.37 0.37 0.04 0.64 0.18 0.95 0.29s0.62 0.23 0.93 0.35c2.76 0.93-1.56-1.5 2.54 0.16 0.59-0.69-0.1-1.14-1.19-1.58-0.28-0.1-0.57-0.22-0.88-0.33-0.33-0.1-0.59-0.26-1.01-0.31-0.77-0.14-1.53-0.31-2.19-0.56-0.25-0.37 1.42-0.25 2.72-0.15 0.16 0.01 0.32 0.03 0.47 0.04 0.13 0.03 0.24 0.06 0.35 0.08 0.21 0.05 0.37 0.07 0.45 0.07 0.15 0.01 0.03-0.15-0.74-0.45 1.94-0.22 3.59 0.86 5.01 1.72 0.7 0.44 1.33 0.83 1.9 1.04 0.51 0.24 0.89 0.33 1.34 0.03 2.34 1.23-0.37 1.27 1.19 2.28-0.86 0.31-1.71-1.57-3-0.93 1 0.94 2.02 1.49 3.24 2.13 0.31 0.16 0.62 0.32 0.95 0.49 0.33 0.18 0.7 0.35 1 0.58 0.64 0.44 1.33 0.98 2.06 1.69 0.39-0.65 1.46-0.57 2.81 0.18 1.36 0.75 3.03 2.21 4.55 4.53 0.75 1.15 1.45 2.49 1.94 3.83 0.25 0.67 0.47 1.32 0.63 1.96s0.26 1.25 0.36 1.82c0.22 1.13 0.25 2.16 0.24 3.04-0.02 0.89-0.11 1.65-0.24 2.28-0.23 2.11 1.33 0.33 0.78 3.01 0.33-0.96 0.5-2.03 0.52-3.17 0.04-1.14-0.07-2.36-0.32-3.75-0.11-0.7-0.33-1.42-0.53-2.22s-0.46-1.66-0.81-2.55c-0.66-1.79-1.65-3.73-2.7-5.39 1.12-0.24 5.4 7.38 1.7 0.5 1.14 1.76 2.12 3.87 2.77 5.81 0.3 0.98 0.56 1.91 0.8 2.79 0.2 0.89 0.36 1.75 0.48 2.6 0.24 1.68 0.32 3.37 0.26 5.19-0.07 1.81-0.28 3.72-0.78 5.8-0.49 2.07-1.24 4.31-2.37 6.72-1.12 2.41-2.78 5.03-4.81 7.73-2.02 2.7-4.43 5.49-7.08 8.23-1.61 1.7-3.29 3.36-4.87 5.02 0.62-0.16 1.26-0.35 1.95-0.57 1.79-0.58 3.87-1.37 5.85-2.09 4-1.45 7.96-2.84 11.27-2.92 0.54-0.78 3.04-1.26 2.68-2.19 1.47-0.36 2.94-0.71 4.41-1.06-0.09 0.67-3.24 0.86-2.77 1.61 0.75 0.48 8.4-1.85 9.84-0.84-3.63 1.27-4.39 1.14-5.67 2.64-3.7-0.75-6.86 2.76-9.48 2.89-0.68 0.5-2.92 2.21-1.16 2.14 0.83-0.25 0.36-0.4-0.05-0.3 3.24-1.32 4.84-2.93 8.49-4.19-1.66 2.43 2.37-1.41 3.16 0.48 5.08-1.19 5.28-1.67 9.41-3.27 1.59 0.24-0.21 0.67-0.51 1.38 1.18-0.94 2.23-0.83 2.83-1.34 3 0.88 6.92-0.6 10.35-2.37 0.79-1.72-4.27 0.84-3.97-0.53 3.45-0.58 8.38-2.24 9.77-1.33-0.54 0.62-1.11 0.21-2.87 1.08-0.68-0.07-0.61-0.7-1.65-0.5-1.13 0.41 0.75 0.36-0.61 0.79 1.08 0.24 3.36-0.4 4.59-0.28-1.85 0.98-4.14 0.98-6.54 2.05-0.26 1.08 2.72-0.29 0.97 1 2.79-1.76 7.07-3.01 9.36-3.44 0.21-0.72-1.16-0.28-2.32 0 1.41-1.24 3.51-1.46 5.07-1.69-4.12 1.5 1.81 1.15-2.68 1.99 0.22 0.99 4.21-0.83 5.33-0.52-0.14 0.46-1.79 0.75-2.87 1.11 0.25 0.62 1.99 0.12 3.8-0.42-0.74-0.56-1.01-1.11-1.85-1.38 0.52-0.61 2.27-1.08 3.53-1.61 0.14-0.79-3.3 1.09-2.39-0.28 2.91-0.21 4.27-0.86 6.71-1.25 0.09 0.39 0.17 0.79 0.26 1.19-2.8-0.88-0.17-0.08-4.46 0.94 0.44 0.13 0.87 0.27 0.93 0.69 3.21-0.84 8.05-1.34 8.65-3.09-0.42-0.37-2.36 0.41-1.73-0.76-1.33 0.62-0.31 1.03-2.12 0.92 3.52-2.25 4.68 0 9.17-0.75 1.71-0.51-0.45-0.73-1.6-0.17 0.28-0.55 0.91-1.06 1.19-1.61 3.48 0.96 11.18-1.74 17.54-1.78-0.35 0.64-1.63 0.7-1.53 0.15-6.16 2.19-8.62 1.77-14 3.56 1 0.16 2.64-0.18 4.52-0.7 0.12 0.49 0.23 0.99 0.35 1.48 0.6-0.37 1.22-0.74 1.46-0.43 1.93-0.86-2.38 0-0.28-1.18 0.97-0.29 1.95-0.59 2.92-0.88-1.78 1.35-0.13 2.46 2.84 2-1.69 1.47-7.3 2.64-5.33 0.66-0.55 0.33-1.12 0.66-2.12 0.94 1.34 0.45 1.03 0.68-1.33 1.03 3.17 0.15 5.02-0.41 9.73-1.96 0.46 0.62-3.38 0.84-1.98 1.55-3.11-0.31-5.21 1.7-9.07 1.44-1.94 0.86 2.38 0 0.28 1.19 0.98-0.29 1.96-0.58 2.93-0.87 0.09 0.4 0.19 0.79 0.28 1.19-1.69 0.28-3.44-0.15-5.21 1.22 1.77-0.33 8.74-1.32 6.4-2.84 2.23-1.03 1.89-0.07 3.07-0.29 0.64-0.13 0.66-0.32 0.66-0.51 1.87-0.43-0.5 1.06-2.06 1.25 0.05 0.78 1.34 0.59 2.48 0.52 1.01-0.42-0.06-0.54-0.88-0.37 0.46-1 3.01-0.76 2.41 0.22 1.35-1.05 1.47-0.31 3.01-0.59 1.12-1.17 4.49-2.31 6.45-2.63-0.81-1.12-5.04 1.52-6 1.22 0.67-0.85 5.58-2.08 6.59-2.04 0.11-1.03-2.17-0.17-2.57-0.8-0.28 0.87-0.05 1.2-4.17 2.24 0.06-0.66 1.81-1.19 2.71-1.79-0.65-0.66-3.23 0.21-3.35-0.87 0.71-0.21 0.65 0.19 0.87 0.37 1.32-0.37 1.45-0.84 2.85-1.2-1.36 1.6 3.63 0.77 5.7 0.77 0.05 0.29-0.83 0.51-1.38 0.75 0.25 0.63 3.13-0.85 4.46-1.08-3.38 2.04-9.61 4.04-12.07 5.35 0.19 0.2 0.8 0.07 0.87 0.36 1.01-0.68 2.91-1.29 3.45-2.02 0.79 0.44 0.43 1.43 2.71 1.39 1.52-0.57 4.16-2.21 3.81-0.56 1.52-0.66 3.74-2.27 4.4-1.39 0.93-0.51 1.2-1.07 1.16-1.65 0.68 0.28 2.43-0.3 2.5 0.48-0.73 0.23-1.46 0.47-2.19 0.7 1.24 0.95 2.99-0.99 5.12-1.65-0.51 0.87-1.26 1.67-3.45 2.38zm-101.71-9.07l-0.49 1.02-0.24 0.51-0.29 0.53c-0.37-0.28 0.18-1.7-0.15-2.05-0.62 1.33-1.35 2.71-2.22 4.13 0.07 0.37 0.37 0.38 0.76 0.15 0.4-0.23 0.91-0.7 1.33-1.23 0.42-0.54 0.86-1.17 1.1-1.73 0.22-0.54 0.32-1.03 0.2-1.33zm-0.57-3.08c-0.13 0.7-0.43 1.37-1.77 3.12 1.06-0.76 1.41-0.99 1.81-1.43 0.19-0.22 0.39-0.48 0.66-0.87 0.26-0.39 0.55-0.89 1-1.61 0.24-0.06 0.54-0.19 0.67-0.96-0.75-0.79 0.35-3.92-1.26-0.76 0.13-0.69-0.07-0.97-0.52-0.79-0.41 1.82-0.44 2.59-0.59 3.3zm-3.42-23.97c0.38 0.57 0.37 0.86 0.34 1.09-0.02 0.23-0.08 0.44 0.16 0.98 0.55 0.57 0.92 1.24 1.18 1.93 0.3 0.67 0.43 1.37 0.56 2 0.25 1.26 0.29 2.28 1.02 2.71-0.22-0.78-0.36-1.69-0.59-2.61s-0.47-1.88-0.79-2.73c-0.58-1.74-1.28-3.02-1.88-3.37zm-0.66 28.19c-0.01 0.15-0.05 0.35-0.1 0.56-0.06 0.22-0.15 0.46-0.23 0.68-0.31 0.87-0.51 1.48 0.86-0.37 0.05-0.36 0.19-0.81 0.44-1.35 0.12-0.27 0.26-0.55 0.41-0.84 0.12-0.28 0.25-0.56 0.37-0.84 0.51-1.14 0.74-2.16 0.19-2.56-0.35 1.07-0.69 1.56-1.12 2.12-0.42 0.56-0.77 1.13-1.34 2.48 0.41-0.3 0.53-0.19 0.52 0.12zm-75.12-55.13c0.82-0.53 2.28-1.1 3.37-1.57 1.08-0.47 1.7-0.84 0.53-0.96-1.19 0.7-2.18 1.11-2.85 1.45-0.34 0.17-0.59 0.33-0.75 0.5-0.19 0.16-0.3 0.35-0.3 0.58zm23.61-19.72c-2.74 2.34-0.89-0.25-0.81-0.93-0.67 0.77-1.29 1.22-1.91 1.66 1.19-0.3 0.25 0.69-0.6 1.43s-1.55 1.3 0.33 0.42c-0.34-0.36 0.59-0.7 1.49-1.12 0.92-0.41 1.8-0.87 1.5-1.46zm8.19-23.86c0.39 0.6 1 1.33 1.24 2.1 0.52 0.66 1.06 0.7 1.29 0.4 0.23-0.29 0.1-0.89-0.81-1.34 0.26 0.42 0.46 0.86 0.13 0.79-0.56-1.12-1.85-2.4-1.59-2.67 0.56 0.6 0.81 0.32-0.2-0.65-0.63 0.32-0.45 0.78-0.06 1.37zm-6.23 2.6c0.27 0.3 0.6 0.75 0.98 1.15 0.33 0.45 0.72 0.86 0.99 1.22 0.29 0.34 0.51 0.59 0.62 0.63 0.1 0.04 0.14-0.17-0.07-0.65-0.22 0.01-0.4-0.03-0.72-0.61 1.82 1.03 0.67-0.95 0.09-2.28-0.69-0.06-0.45 0.33-0.27 0.81 0.21 0.45 0.37 0.94-0.28 0.82-0.63-0.91-2.11-2.13-1.34-1.09zm-0.39 0.82c0.18 0.19 0.36 0.38 0.55 0.57l0.49 0.63c0.17 0.2 0.32 0.42 0.46 0.64 0.15 0.22 0.29 0.43 0.41 0.65 0.53 0.86 0.91 1.69 1.27 2.24-0.3-0.87-0.74-2.39-1.41-3.44-0.65-1.05-1.4-1.68-1.77-1.29zm-0.04 23.61c0.99-0.3 1.94-0.34 2.95-1.09 0.83-1.79 3.72-4 4.77-7.48-1.26 0.6-0.89-0.53-1.68-0.42-0.78 1.56-0.54 1.61-0.1 1.49 0.43-0.12 1-0.44 0.78 0.26-0.93 0.78-1.31 0.82-1.37 0.15-0.87 1.44-1.89 2.95-2.3 3.69-0.42 0.72-0.13 0.8 1.4-0.81-0.39 1.09-1.01 1.72-1.78 2.32s-1.68 1.13-2.67 1.89zm-3.13-30.85c1.02 0.24 2.43 0.48 2.99 0.32-1.16-0.49-2.3-0.85-3.46-1.13-1.13 0.27-0.55 0.58 0.47 0.81zm-5.2 1.79c1.45 0.24 1.31 1.05 3.12 0.92-0.82-0.48 0.07-0.25 1.21 0.16 1.16 0.4 2.54 1.13 2.74 0.91-1.18-0.9-2.47-1.27-3.73-1.53-1.11-0.22-2.25-0.33-3.34-0.46zm-2.64 34.33c1.7-0.98 4.31-2.5 5.26-3.73-1.62 1.04-4.36 2.61-5.26 3.73zm-8.39-32.1c-1.65-0.07 2.13-0.43 3.03-0.4-1.4 0.41-0.46 0.41 0.54 0.32 1-0.08 2.03-0.24 0.89-0.3-0.71 0.08-1.42-0.04-2.32-0.12-0.9-0.09-1.96-0.16-3.48 0.12 1.06-0.03-1.53 1.16 1.34 0.38zm-8.86-6.44c0.16 0.1 0.52 0.2 0.86 0.35 0.32 0.16 0.71 0.33 1.15 0.47 0.89 0.27 1.96 0.41 2.93 0.19-1.35-0.07-1.2-0.42 0.02-0.96-1.18-0.05-1.77-0.33-2.36-0.49-0.15-0.04-0.3-0.07-0.45-0.08-0.15-0.02-0.38 0.01-0.58 0.04-0.44 0.06-0.94 0.21-1.57 0.48zm-5.56 2.45c0.9 0.03 2.42-0.09 1.98 0.26-0.53 0.03-1.05 0.07-1.31 0.32 0.53 0 1.11-0.04 1.6-0.02l1.45 0.06c-0.17-0.56 3.48-1.68 1.23-1.2-0.26 0.21-0.61 0.28-1.01 0.3-0.2 0.01-0.4-0.01-0.64-0.02s-0.5-0.02-0.76-0.03c-1.03-0.05-2.06-0.1-2.54 0.33zm-79.12 16.1c2.3-0.48 5-0.89 4.41-1.87-2.72 0.41-3.87 1.09-4.41 1.87zm-9.49 8.41c-2.59 0.49-4.03 0.59-5.88 1.76 2.57-0.58 4.01-0.64 5.88-1.76zm3.62-1.48c0.28-1.07-1.56-0.6-0.26-1.5-1.77 0.38-3.24 0.55-4.76 0.75s-3.09 0.43-5.05 1c0.08 0.4 0.15 0.79 0.23 1.19 3.15-0.56 3.41-1.45 5.85-2.06 0.05 0.3 0.67 0.21 0.85 0.42-0.71 0.48-1.4 0.95-2.07 1.43 3.12-0.88 2.38-1.44 5.21-1.23zm4.52-0.73c-3.18 0.63-5.9 1.4-6.55 2.46 2.2-1.83 5.74-0.27 6.55-2.46zm2.95-0.94c0.3-1.45-6.14 0.1-6.78 1.2 2.86-0.99 3.52-1.07 6.78-1.2zm4.62-0.06c-2.36 0.55-2.44-0.06-6.07 0.68 0.2 0.42-0.09 1.16 0.94 1.04-0.03-0.88 5.16-0.84 5.13-1.72zm14.15 3.16v-0.93c-0.72 0.2-1.17 0.09-1.58 0.07-0.19-0.02-0.41-0.01-0.61 0.05-0.11 0.03-0.2 0.07-0.33 0.13-0.16 0.07-0.33 0.17-0.52 0.29-0.03-0.57-0.65-0.53-1.53-0.01 0.49-1.09 0.55-0.75-0.9-1.07 0.57-0.17 1.47-0.29 1.45-0.59-3.07 1.14-4.24 2.12-7.37 2.03-0.14 0.64 1.09 0.41 1.62 0.62-0.45 0.1-0.87 0.21-0.7 0.44 0.59-0.04 1.47-0.27 1.53 0.01 1.91-0.67 3.69-0.92 5.32-1.11 0.41-0.05 0.8-0.09 1.18-0.14 0.28-0.02 0.51-0.04 0.76-0.07 0.44-0.05 0.84-0.13 1.23-0.28 0.1 0.23 0.03 0.61 0.45 0.56zm11.95 13.6c-0.24 0.14-0.09 0.25 0.97 0.29 0.92-0.16 3-0.56-0.97-0.29zm37.99-16.74c-0.74-0.19-0.94-0.8-1.48-1.08s-1.33-0.27-3.09 0.53c1.52-0.17 1.72 0.16 1.99 0.4 0.26 0.27 0.63 0.44 2.58 0.15zm-4.2-12.9c-0.3 0.29-1.16 0.77-0.5 0.73 1.52-0.52 1.7-0.81 1.17-0.94-0.53-0.12-1.76-0.08-2.95 0.06-1.5 0.73-1.87 1.3-1.67 1.58 0.21 0.28 1.04 0.25 2.16-0.25-1.29 0.15-1.02-0.26 0.37-1.06 0.47-0.04 0.95-0.08 1.42-0.12zm6.57-3.82c-1.01 0.06 0.14-0.5-0.59-0.53-0.78 0.48-2.03 0.41-3.02 0.31s-1.7-0.21-1.35 0.23c2.22-0.25 2.73 0.84 4.96-0.01zm2.4 45.01c-0.94 0.5-1.35 0.91-0.53 1.1 1.48-0.83 2.44-1.3 3.03-1.7 0.61-0.39 0.92-0.68 1.09-1.13-1.28 0.59-2.65 1.23-3.59 1.73zm-1.09-2.12l2.99-1.32c-1.36-0.54-5.45 1.21-2.99 1.32zm-1.94-48.24c-0.19-0.05-0.39-0.1-0.67-0.1-0.44 0.3-0.56 0.54-0.58 0.77-0.03 0.24 0.06 0.45 0.1 0.65 0.09 0.4 0.02 0.75-1.46 1.2 2.68 0.15 4.46-0.48 5.91-1.39-0.9-0.13-1.42-0.36-1.95-0.6-0.26-0.12-0.53-0.24-0.85-0.35-0.14-0.08-0.31-0.13-0.5-0.18zm-6.28-3.59c0.66 0.27 2.2 0.2 3.73-0.64-4.26 0.78 0.71-1.11-1.95-0.81-2.23 0.55-2.43 1.17-1.78 1.45zm-4.09 3.03c1.46 0.06 6.13-0.84 5.35-0.1-3.71 1.14 1.01 0.21 0.63 0.86-2.77 1.56-1.46 0.21-1.86 0.15-1.4 0.3-2.26 0.98-2.34 1.39-0.07 0.42 0.62 0.57 2.51-0.19-0.63 0 1.03-0.68 2.72-1.37 1.68-0.69 3.38-1.4 2.57-1.47-2.7 0.93 1.2-0.43-0.1-0.6-2.41 0.39-3.77 0.44-5.06 0.54-1.26 0.08-2.46 0.22-4.42 0.79zm-1.88 27.85c-0.07 0.53 0.56 0.87 2.28 0.42-0.51-0.41-0.16-0.77 0.21-1.15 0.35-0.37 0.7-0.76-0.03-1.05-1.58 0.52-2.37 1.25-2.46 1.78zm0.21-3.93c-1.76 0.49-1.85 0.28-1.95 0.08-0.09-0.21-0.19-0.41-1.74 0.07-2.59 1.45-3.86 1.74-6.68 2.88 0.66 0.35 0.8 0.46 5.13-1.05-3.89 1.55-4.8 2.2-4.91 2.69 4.96-2 6.49-3.25 6.86-4.03 0.07 0.14 0.74 0.2 1.48 0.13 0.74-0.08 1.56-0.29 1.81-0.77zm-14.12 8.98c-0.44 0.38-0.86 0.82 0.82 0.39 0.48-0.44 1.74-0.94 2.91-1.46 1.18-0.52 2.28-1.06 2.31-1.52 0.41 0.29 1.83-0.51 2.04-0.92-1.79 0.57-3.63 1.15-5.42 1.73-0.83 0.67 3.59-0.24 0.32 0.87-1.45 0.03-1.96-0.08-2.12-0.36-0.16-0.27 0.01-0.71-0.16-1.1-1.55 0.6-1.97 1.14-1.98 1.59 0.01 0.45 0.4 0.85 0.96 0.8 1.27-0.72 0.76-0.4 0.32-0.02zm-2.7-5.81c-0.47 0.31-1.34 0.78-1.1 0.78 2.82-1.67 1.42-0.32 2.08-0.46 1.94-1.11 1.75-0.41 3.43-1.24-0.31-0.33-1.82 0.39-2.97 0.85 0.92-0.45 1.41-0.85 1.43-1.03s-0.4-0.14-1.19 0.29c-0.27 0.46-0.47 0.31-0.7 0.18-0.24-0.13-0.53-0.25-0.87 0.25 0.06 0.09 0.55-0.01-0.11 0.38zm6.8-0.56c-0.99 0.17-0.1-0.53 1.19-1.23s3.12-1.4 4.13-1.24c-0.57-0.31-1.74-1-6.14 1.31 5.19-1.51-3.34 1.88 0.82 1.16zm8-17.42c-3.22 0.46-3.35-0.62-6.05 0.64 1.78 0.11 3.55 0.62 6.05-0.64zm-8.97 14.41c-1.7 0.89-2.37 1.54-2.48 1.88-0.1 0.34 0.41 0.37 1.34 0.01 0.02-0.45-0.01-0.91 1.14-1.89zm-10.76 7.51c0.9 0.11 1.7 0.15 2.54 0.14 0.85-0.01 1.75-0.03 2.83-0.27-0.53-0.34-0.74-0.69-1.44-0.76-0.69-0.07-1.86 0.09-3.93 0.89zm5.77-1.64c3.74-1.7 0.57-0.76 4.8-2.45-2.17 0.78-2.74 0.81-3.05 0.69-0.3-0.12-0.33-0.39-1.08-0.22 0.2 0.06-0.91 0.63-2.03 1.2 0.73-0.16-0.54 0.59 0.73-0.01-0.23 0 1.06-0.7 1.61-0.82-1.79 1.2-1.81 1.67-0.98 1.61zm13.08-28.36c0.42-0.46 1.21-0.8 2.01-1.12-5.21 0.82-3.1-0.68-1.05-1.72-2.19 0.19-2.97 0.75-3.25 1.34-0.28 0.58-0.11 1.19-0.32 1.48-1.23 0.04-1.46-0.28-3.65 0.08-0.85 0.87-2.72 1.26-0.17 1.25 1.52-1.64 2.62-0.7 6.43-1.31zm-15.7 5.76c3.2-0.67 0.14 1.22 3.58 0.48 1.13-0.14 1.26-0.69 2.26-0.87-0.92 0.96 1.69 0.56 2.2 0.95 0.47-0.89 1.28-1.08 2.35-1.27 1.07-0.18 2.38-0.39 3.92-1.25-2.78 0.2-5.37 0.56-6.73 1.37 0.2-0.99 1.9-1.37 3.3-1.89-2.61 0.69-3.74-0.26-4.52 0.51 0.04 1.06-0.62 0.02-2.46-0.04-1.15 0.61-0.56 0.86-0.05 1.03s0.97 0.26-0.34 0.55c-0.23-0.02-0.91-0.13-1.65-0.13-0.73-0.01-1.52 0.14-1.86 0.56zm-6.03 0.54c1.06-0.69 3.42-1.37 1.78-1.78-1.43 0.25-3.42 0.36-3.9 0.85 2.63-0.5 0.31 1.1 2.12 0.93zm9.9 1.42c-1.3 0.19-2.77 0.3-2.94 0.97 3.54-0.77 6.81-1.05 6.91 0.04-0.96 0.11-0.65-0.3-1.99-0.05-1.82 1.23 1.88 0.22 3.17 0.2 0.34-1.26 2.79-1.25 3.71-2.19-0.57-0.3-1.48-0.04-2.56 0.36-1.09 0.39-2.33 0.87-3.69 0.96 1.55-0.76-0.95-0.9-3.49-0.79-2.53 0.09-4.95 0.49-2.92 0.66-4.2 0.78-3.55-0.55-6.75-0.26-2.51 2.45 7.08 0.34 10.55 0.1zm-6.73 17.55c1.04-0.03 2.54-0.85 3.93-1.32-0.29-0.19-0.61-0.6-1.28-0.71-0.66-0.1-1.62 0.09-2.93 1.04 2.06-0.34 1.32 0.03 0.28 0.99zm0.29-2.03c-1.04 0.4-2.04 0.18-3.07 1.29 0.94-0.03 1.88-0.13 3.07-1.29zm5.81-13.93c-2.3 0.51-1-0.48-2.57-0.29-0.48 0.54-2.19 0.51-2.29 1.2 1.54-0.57 2.09-0.37 2.55-0.23 0.47 0.15 0.88 0.2 2.31-0.68zm-10 13.06c2.58-0.72-0.49 1 0.28 0.94 0.79-0.53 1.14-0.44 1.49-0.38 0.35 0.05 0.7 0.09 1.66-0.62-0.99 0.2-1.68 0.2-1.88 0.03-0.19-0.17 0.11-0.5 1.27-0.94-1.44 0.4-0.22-0.62-1.14-0.51-0.52 0.62-1.09 1.13-1.68 1.48zm-4.21 4.68c-0.33-0.27-1.8 1.17-1.23 0.14 0.53-0.58 2.87-0.85 2.38-1.56-0.48 0.43-2.36 1.37-1.97 0.55 0.41-0.58 1.08-0.3 1.55-0.82-1.22 0.54-1.92 0.7-2.62 0.89-0.69 0.19-1.37 0.4-2.29 1.01 1.29-0.52 1.79-0.11 2.14 0.22 0.38 0.33 0.62 0.56 2.04-0.43zm2.86-1.29c-1.44 0.65-1.07-0.35-2.56 1.26 0.85-0.29 1.56 0.23 2.5-0.61-0.34 0.01-0.64-0.02 0.06-0.65zm0.47-1.18c0.48 0.02 0.87 0.04 1.64-0.36-0.09-0.28-1.05-0.2-1.95 0.01-0.9 0.2-1.72 0.52-1.65 0.73 0.92-0.4 1.49-0.39 1.96-0.38zm1.24 0.68c0.35-0.11 0.68-0.07 1.07-0.43-0.81 0.25-1.62-0.25-2.43 0.57 0.11 0.31 0.42 0.49 0.22 0.96-0.18 0.02-0.65 0.33-0.38 0.37 0.9-0.57 1.34-0.96 1.52-1.47zm4.3 0.31c-1.42 0.25-2.04 0.2-2.29-0.04-0.24-0.24-0.1-0.66 0.18-1.14-0.93 1.13-1.55 0.95-2.31 1.54-0.14 0.97 2.59 0.5 4.42-0.36zm-1.39 2.92c2.74-1.6-0.16-0.6 0.93-1.49 1.63-0.99 1.81-0.74 1.64-0.33-0.15 0.42-0.66 1 0.13 0.6-0.14-0.18 0.83-0.43 1.61-0.8-1.19 0.24-0.76-0.07-0.15-0.47s1.44-0.9 0.97-1.03c1.44-0.32 1.21-0.01 2.24-0.46-0.25-0.07 0.53-0.43 1.35-0.8 0-0.33-1.87 0.1 0.15-1.09-1.37 0.44-2.68 0.87-3.95 1.32 0.12 0.44 1.38-0.27 0.78 0.3-1.38 0.32-0.97 0.81-2.42 1.57-0.57 0.07-0.8-0.03-0.63-0.31-1.59 1.46-1.38 0.67-3.65 2.34 2.03-0.59-0.18 0.85 1 0.65zm-0.37 1.55c0.77-0.18 1.76-0.58 0.49-0.42 0.83-0.68-0.91 0.31-0.12-0.37-1.73 0.95-1.14 0.97-0.37 0.79zm3.82 1.39c-0.18-0.12-0.37-0.23-0.59-0.3-1.02 0.41-2 0.8-3 1.19 0.36 0.01 0.07 0.36 1.5-0.12 0.15-0.16-0.22-0.16 0.78-0.55 0.33-0.02 0.3 0.15 1.31-0.22zm6.14 3.15c-2.03 0.29-2.33 0.59-3.49 0.86-0.05-0.32 2.29-0.68 1.83-1.06-1.22 0.24-3.2 0.72-4.49 1.07-1.3 0.35-1.91 0.58-0.49 0.48 0.54-0.23 1.19-0.29 2-0.32 0.82-0.04 1.79-0.06 3.08-0.31 0.18-0.24 0.86-0.47 1.56-0.72zm7.41-1.21c-3.43 0.43-3.88 1.03-5.86 1.46 1.62 0.08 2-0.39 5.21-0.76 0.22-0.22 0.43-0.46 0.65-0.7zm1.73-3.98c0.19 0.32-0.26 0.92 1.01 0.66-0.15-0.53 1.36-1.02 1.16-1.57-1.56 0.65-2.98 0.81-4.13 0.98-1.17 0.17-2.03 0.33-2.49 0.83 0.89-0.05 0.64 0.51 0.6 0.95-0.03 0.45 0.18 0.78 2.27 0.49 0.31-0.94-1.72-0.97 1.58-2.34zm-6.56 32.98c0.96 0.29-0.33 0.8-1.67 1.32-1.35 0.51-2.77 1.02-2.12 1.37 3.42-0.95 1.34 0.23 0.82 0.99 2.21-1 4.1-2.28 5.99-3.41 1.9-1.14 3.81-2.13 6.23-2.79-1.1-0.79 0.56-1.32 0.16-1.68 1.88-0.44 2.76 0.11 5.05-0.68-0.35-0.26-0.59-0.52 1.03-1.08 0.55-0.21 1.1-0.41 1.28-0.2-0.91 0.45-0.96 0.76-1.03 1.08 3.08-1.49 0.94-1.83-0.54-1.74 1.08 0.18 0.1 0.74-1.14 1.13-1.26 0.39-2.77 0.57-2.7 0.1-2.54 1.18-5.14 2.05-7.11 2.79-1.99 0.73-3.35 1.37-3.58 2.24 1.3-0.39 2.53-1.09 3.71-1.67 1.2-0.58 2.29-1.07 3.57-1.08-4.73 1.85-4.56 1.58-1.8 1.67-3.04 1.38-4.29 1.24-6.15 1.64zm-7.77 2.19c1.18-0.73 2.33-1.05 3.58-1.34 1.24-0.28 2.56-0.54 3.95-1.08 0.17-0.74-1.07-0.27-2.3 0.2-1.24 0.47-2.48 0.93-2.24 0.17-1.08 0.31-2.52 0.95-3.35 1.46-0.84 0.52-1.08 0.89 0.36 0.59zm-7.05 2.88c-0.01 0.67-3.25 1.48-3.32 2.17 1.99-0.63 3.46-1.58 4.67-2.29 1.22-0.71 2.18-1.19 3.44-0.97-0.22-0.49 0.62-0.62 1.44-0.73s1.61-0.19 1.19-0.54c-2.23 0.7-2.59-0.06-4.29 0.26-0.17 0.47-0.83 0.96-2.36 1.5 0.2-0.27 1.65-1.84-0.51-1.11-0.04 0.47-1.75 1-2.36 1.5-0.27-0.15-0.23-0.56-1.06-0.26 0.65 0.93 1.87 0.85 3.16 0.47zm-11.71 6.24c-1.79 1.15-4.65 1.64-4.5 3.34 3.18-0.9 5.15-3.29 4.5-3.34zm5.48-25.25c-0.65 0.35-1.28 0.8-1.63 0.57 0.9 1.14 2.3 0.05 3.57-0.6-0.63-0.57-1.3-0.32-1.94 0.03zm-3.42-1.05c0.13 0.61 0.58 0.31 1.05 0.07 0.4-0.21 0.82-0.36 1.23 0.43-0.81 0.5-1.4 0.15-2.19 0.43 0.24 0.44 0.73 0.44 1.29 0.32 0.14-0.03 0.29-0.07 0.44-0.11l0.39-0.1c0.26-0.07 0.52-0.13 0.77-0.14-0.82-1.29-0.93-1.38-1.53-2.34-0.34 0.17-0.23 0.51-0.26 0.82-0.01 0.15-0.06 0.3-0.22 0.4s-0.49 0.2-0.97 0.22zm-3.57 2.89c0.87-0.39 1.31-0.4 1.78-0.45 0.11-0.01 0.22-0.02 0.35-0.04 0.07 0 0.14 0 0.23-0.02 0.16-0.03 0.36-0.1 0.6-0.25-0.33-0.52 0.26-0.73 0.36-1.09-0.55 0.17-1.02 0.37-1.4 0.61l-0.08 0.05-0.17 0.09c-0.1 0.05-0.2 0.1-0.29 0.16-0.19 0.1-0.37 0.21-0.53 0.31-0.33 0.21-0.62 0.42-0.85 0.63zm-1.3 1.12c0.23 0.48 1.28 0.24 2.52-0.16 1.51-0.51 1.95-0.68 2.58-0.72-0.24-0.48-0.28-0.9-0.11-1.25-0.58 0.5-0.9 0.71-1.31 0.87-0.17 0.06-0.34 0.12-0.53 0.19-0.24 0.08-0.5 0.17-0.8 0.27-0.6 0.21-1.34 0.46-2.35 0.8zm-2.91 21.87c0.26 0.39 0.09 1.17 1.09 0.88 0.15-0.5 3.78-2.36 1.77-1.97 0.06 0.82-1.36 0.06-2.86 1.09zm-6.76 1.37c1.92-1.04 1.97-0.32 3.64-1.12-0.93-0.68 1.64-1.33 1.75-2-4.99 1.18-3.12 1.01-5.39 3.12zm-2.67 6.05c3.83-1.69 1.19-1.88 5.87-3.73-0.53-0.27 0.32-1.82-1.19-1.17-0.92 0.57 0.26 1.14-1.01 1.72-1.04-1.07 1.15-2.11 1.33-3.15-3.28 0.82-1.51 1.72-3.92 2.59-1.52-0.25 2.89-1.84 0.4-1.15-2.87 2.22-0.97 3.13-1.48 4.89zm-48.78 31.08zm-0.28 0.15l0.01-0.01c0.01 0 0.01 0-0.01 0.01 0.01 0 0.01 0 0 0zm0.1-0.05h-0.01c-0.01 0-0.01 0.01-0.02 0.01 0 0-0.01 0-0.01 0.01 0 0-0.01 0-0.01 0.01l-0.01 0.01h-0.01 0.01c-0.01 0-0.01 0-0.01 0.01h-0.01c-0.01 0-0.01 0.01-0.01 0.01h-0.01 0.01s0.01-0.01 0.02-0.01 0.01-0.01 0.01-0.01h0.01-0.01l0.01-0.01 0.04-0.02c-0.01 0.01-0.02 0.01-0.04 0.02 0.01-0.01 0.02-0.02 0.05-0.03zh-0.01 0.01zm0.04-0.05zm0.04 0.02c-0.01 0-0.02 0.01-0.03 0.01h-0.01c0.01 0 0.01 0 0.02-0.01 0.01 0.01 0.02 0 0.02 0zm0.01 0zm0.09-0.07h0.02c-0.01-0.01-0.02 0-0.02 0-0.01 0-0.01 0 0 0-0.01 0 0 0 0 0zm0.02-0.01zm4.4 1.15c0.02 0.01 0.05 0.02 0.07 0.03h-0.01c-0.02-0.02-0.04-0.03-0.06-0.03zm-1.03-8.77v-0.03 0.03zm-0.03 0.15v-0.01-0.01 0.02zm-0.4 1.58c0.03-0.11 0.07-0.23 0.1-0.35-0.03 0.09-0.06 0.19-0.08 0.28-0.01 0.02-0.02 0.05-0.02 0.07zm-0.25 0.88c0-0.01 0.01-0.01 0 0 0.01-0.02 0.01-0.04 0.02-0.06 0 0.02-0.01 0.04-0.02 0.06zm-0.35 0.97c0.04-0.09 0.07-0.17 0.1-0.26 0.01-0.04 0.03-0.07 0.04-0.1-0.04 0.12-0.09 0.24-0.14 0.36zm-2 4c0.03-0.01 0.06-0.02 0.1-0.02-0.03 0-0.05 0.01-0.08 0.01-0.02 0-0.04 0.01-0.05 0.01h0.01-0.01 0.02 0.01c-0.01 0 0 0 0 0s-0.01 0 0 0c-0.01 0 0 0 0 0zm0.16 0.05h-0.02-0.06 0.01c0.03-0.01 0.05-0.01 0.07 0zm0.18-0.1zm0.2 0.14h-0.01-0.01 0.02zm0.5 0.09c0.02 0 0.03 0.01 0.04 0.01-0.03-0.01-0.05-0.01-0.07-0.02-0.02 0-0.03-0.01-0.05-0.01 0.02 0 0.05 0.01 0.08 0.02-0.02 0-0.04-0.01-0.06-0.01-0.04-0.01-0.08-0.02-0.12-0.02 0.03 0.01 0.06 0.01 0.09 0.02-0.11-0.02-0.21-0.04-0.3-0.05-0.04-0.01-0.07-0.01-0.11-0.01 0.06 0.01 0.11 0.02 0.18 0.03 0.04 0.01 0.09 0.02 0.14 0.03 0.04 0.01 0.08 0.02 0.13 0.02 0.01-0.02 0.03-0.02 0.05-0.01zm0.34 0.08c-0.03-0.01-0.07-0.02-0.1-0.02-0.02 0-0.04-0.01-0.06-0.01 0.05 0 0.1 0.01 0.16 0.03zm0.29 0.07c-0.09-0.02-0.17-0.05-0.25-0.07 0.08 0.03 0.17 0.05 0.25 0.07zm0.11-3.73c-0.01 0.03-0.03 0.06-0.04 0.1 0-0.01 0.01-0.01 0.01-0.02 0.01-0.03 0.02-0.06 0.03-0.08zm1.12 4.12c-0.05-0.02-0.11-0.04-0.16-0.06 0.01 0.01 0.03 0.01 0.04 0.02 0 0-0.01 0-0.01-0.01 0.01 0 0.02 0.01 0.04 0.01l-0.15-0.06c-0.03-0.01-0.05-0.02-0.07-0.03-0.01 0-0.01 0-0.02-0.01-0.01 0-0.02 0-0.02-0.01h-0.01c-0.02-0.01-0.05-0.02-0.07-0.02-0.01 0-0.02-0.01-0.03-0.01 0 0 0.01 0 0.01 0.01-0.06-0.02-0.13-0.04-0.18-0.06 0.02 0.01 0.04 0.01 0.05 0.02-0.07-0.02-0.13-0.04-0.2-0.06 0.03 0.01 0.06 0.02 0.1 0.03-0.01 0-0.02 0-0.02-0.01 0.01 0 0.03 0.01 0.04 0.01h0.01c-0.03-0.01-0.07-0.02-0.1-0.03 0.02 0.01 0.04 0.01 0.05 0.02-0.12-0.04-0.21-0.07-0.29-0.09 0.02 0.01 0.05 0.01 0.07 0.02-0.02-0.01-0.04-0.01-0.06-0.02s-0.03-0.01-0.05-0.01h-0.01c0.01 0 0.03 0.01 0.04 0.01-0.02 0-0.03-0.01-0.05-0.01-0.02-0.01-0.04-0.01-0.06-0.02 0.05 0.02 0.11 0.03 0.17 0.05l-0.12-0.03c0.17 0.05 0.35 0.1 0.52 0.16 0.18 0.07 0.35 0.13 0.54 0.19zm0.32 0.13c-0.07-0.02-0.13-0.05-0.2-0.08-0.02-0.01-0.04-0.02-0.06-0.02-0.02-0.01-0.03-0.01-0.05-0.02 0.1 0.03 0.21 0.08 0.31 0.12zm2.15 0.93c-0.02-0.01-0.03-0.02-0.05-0.03l-0.06-0.03c-0.1-0.05-0.19-0.09-0.28-0.14 0.01 0 0.02 0.01 0.03 0.01 0.05 0.02 0.1 0.05 0.14 0.07-0.05-0.02-0.09-0.04-0.14-0.07-0.03-0.01-0.06-0.03-0.08-0.04-0.04-0.02-0.09-0.04-0.13-0.06 0.01 0 0.01 0.01 0.02 0.01-0.01 0-0.01-0.01-0.02-0.01-0.02-0.01-0.05-0.03-0.08-0.04-0.01 0-0.02-0.01-0.02-0.01-0.03-0.01-0.06-0.02-0.08-0.04 0.01 0.01 0.03 0.01 0.04 0.02-0.01-0.01-0.02-0.01-0.03-0.01-0.02-0.01-0.04-0.02-0.05-0.02h-0.01c0.01 0 0.02 0.01 0.03 0.01-0.16-0.07-0.31-0.14-0.45-0.19 0.03 0.01 0.06 0.02 0.09 0.04-0.01-0.01-0.02-0.01-0.04-0.02-0.08-0.03-0.16-0.07-0.24-0.1-0.02-0.01-0.03-0.01-0.05-0.02 0.01 0 0.01 0.01 0.02 0.01-0.04-0.02-0.08-0.03-0.12-0.05-0.01 0-0.02-0.01-0.03-0.01s-0.02-0.01-0.02-0.01c0.05 0.02 0.12 0.05 0.21 0.09 0.02 0.01 0.04 0.02 0.06 0.02 0.45 0.2 0.89 0.41 1.34 0.62zm0.04 0.02s-0.01 0-0.01-0.01c0 0.01 0.01 0.01 0.01 0.01zm0.12 0.06l0.12 0.06c-0.03-0.01-0.05-0.03-0.08-0.04-0.02-0.01-0.04-0.02-0.07-0.03 0.01 0 0.02 0.01 0.03 0.01zm1.25 0.65c-0.03-0.02-0.07-0.04-0.1-0.05 0.04 0.01 0.07 0.02 0.1 0.05-0.16-0.09-0.32-0.17-0.49-0.26-0.01 0-0.02-0.01-0.03-0.01 0.01 0 0.01 0.01 0.02 0.01-0.01-0.01-0.03-0.01-0.04-0.02-0.08-0.04-0.17-0.09-0.26-0.14-0.1-0.05-0.2-0.1-0.29-0.15-0.04-0.02-0.08-0.04-0.13-0.06 0.33 0.16 0.67 0.34 1.01 0.52 0.07 0.03 0.14 0.07 0.21 0.11zm3.51-12.95c-0.29-0.66-0.87-0.79-1.81 0.04 0.08 0.18 0.02 0.41-0.09 0.65 0.59-0.15 1.25-0.36 1.77-0.58 0.05-0.04 0.09-0.08 0.13-0.11zm1.16-0.11c0.02 0.02 0.04 0.04 0.06 0.05 0.07 0.01 0.19-0.03 0.39-0.17 1.11-1.61 0.71-0.31 0.83 0.39 0.29-0.02 0.66-0.08 1.12-0.17-0.43-1.4 0.59-3.59-1.84-2.34 0.36 0.28-0.67 1.91-0.56 2.24zm2.8 6.84c-0.27-0.55-1.16-0.68-2.1-0.8-0.01 0.09-0.01 0.17 0.03 0.25-0.32 0.18-0.61 0.36-0.9 0.54 0.44 0.36 1.2 0.51 2.97 0.01zm12.76-19.03c-1.02 0.82-2.44 1.7-3.49 2.18-1.04 0.48-1.75 0.54-1.33-0.36-0.99 0.37-1.85 1.08-2.19 1.6-0.35 0.51-0.2 0.81 0.8 0.37 0.48-0.49 1.32-0.48 2.25-0.49s1.95-0.04 2.91-0.58c-2.08 0.38 0.56-1.4 1.05-2.72zm4.19-25.62c0.6 1.12 3.75-0.02 5.59-1.15l-0.42-1.14c-4.06 1.69-1.06 1.66-5.17 2.29zm-4.33 25.35c2.17-0.54 5.29-1.27 4.9 0.09 0.85-0.46 1.71-0.9 2.58-1.34 0.71-1.43-2.94 0.1-1.27-1.06 1.3 0.13 1.88-0.19 2.65-1.32 1.87-1.08 3.17 0.57 4.36-1.06-2.25 0.83 0.38-3.51-4.05-0.1 0.68-0.32 1.04 0.08 0.23 0.56-0.38-1.31-2.4 1.12-3.31 1.65 0.81-1.16-0.76-1.5-1.69-0.16 1.29-0.78 0.22 0.87-0.27 1.18-0.02-0.43-0.99-0.25-2 0.14-0.99 0.39-2.01 1.01-2.13 1.42zm-10.59-15.99c2.74-1.55 3.24-2.7 4.64-3.96 0.88 0.46-1.22 1.34-0.98 1.89 2.5-1.94 6.23-2 5.43-4.18-2.49 0.96-1.23 1.51-2.6 2.34-0.05-0.76-0.59-1.02-1.35-1-3.37 1.34-2 2.04-3.2 3.11-1.15 0.67-2.57 1.41-1.94 1.8zm-0.62 29.74c-0.2 0.02-0.4 0.04-0.56 0.04-0.17 0.17-0.34 0.35-0.52 0.53 0.81-0.15 1.64-0.32 1.89-0.13 0.37-0.58-0.22-0.51-0.81-0.44zm0.62-0.76c0.48-0.92 2.28-1.55 4.35-2.18-0.07-0.09-0.11-0.22-0.14-0.39-0.24-0.06-0.53-0.07-0.94-0.02 0.29-0.22 0.59-0.38 0.87-0.5-0.08-0.7-0.21-1.52-1.11-1.51-0.04 0.03-0.06 0.06-0.09 0.08 0.03 0.14 0.05 0.28 0.08 0.42-0.16-0.02-0.28-0.04-0.39-0.07-0.48 0.75 0.41 1.2-0.42 2.05-0.46 1.65 0.23-2.31-1.95-0.42 0.67 0.68 0.24 1.46-0.72 2.57-0.03 0.03-0.05 0.06-0.08 0.09 1.33-0.15 1.4 0.54 2.17 0.76 0.43-0.25 0.92-0.48 1.36-0.73 0.35-0.28 0.68-0.58 0.94-0.91-0.05 0.16-0.16 0.33-0.28 0.5 0.5-0.37 0.79-0.78 0.55-1.29-2.73 0.27-1.92 1.2-4.2 1.55zm5.17-5.21c0.2 0.14 0.61 0.1 1.27-0.27-0.39 0.1-0.83 0.19-1.27 0.27zm-0.04 4.69l1.58-0.38c0.07-0.04 0.12-0.07 0.19-0.11v0.06l2.54-0.61c-0.08-0.39-0.15-0.8-0.23-1.19-1.07 0.79-3.96 1.27-4.08 2.23zm5.1 3.14c-2.2 0.51-2.11 0.09-3.85-0.32-0.42 1.22 1.9 1.05 0.37 2.1 1.62-0.52 2.21-1.2 3.48-1.78zm28.53-14.15c-1.29-1.21-6.84 0.97-10.52 1.62 0.85 0.95-3.33 1.4-4.91 2.08 0.07 0.3 0.13 0.59 0.2 0.89 1.74-0.05 2.54-1.56 2.89-0.84-0.67 0.51-1.33 1.02-1.96 1.52 2.12 0.23 2.66-1.19 4.2-1.87 0.09 0.52 0.74 0.6 1.67 0.46-0.07-0.41-0.5-0.54-0.94-0.67 2.03-0.37 1.32-1.03 2.76-1.47 0.77 0.44 2.04 0.52 4.57-0.45-0.33-0.78 0.86-1.36 2.04-1.27zm6.35-2.94c-1.8 0.91-3.71 0.2-4.39 1.38 2.98-0.46 0.26 0.41-0.5 1.11 1.01-0.22 1.5-0.02 2.99-0.62 0.03-0.38-0.34-0.8 0.51-1.12 0.55-0.24 1.44-0.46 1.39-0.75zm62.42 15.08c-1.77 0.55-1.44-0.32-2.82-0.01-0.1 0.47-1.08 0.77-1.26 1.22 1.13 0.43 1.66-0.77 2.17-0.19 0.08 0.54-3.8 1.78-1.16 1.83 0.94-2.09 1.89-0.12 2.06-0.79-0.71-0.07 0.47-1.49 1.01-2.06zm27.63-8.31c-1.25 0.28-2.3 0.82-3.14 1.57 1.13-0.28 1.22-0.28 1.96 0.02 0.4-0.53 0.79-1.06 1.18-1.59zm0.96 2.16c-0.45-0.05-1.15 0.15-1.65 0.45 1.18 0.17 1.31 0.14 1.72 0.46 0.54-0.58 0.37-0.85-0.07-0.91zm3.38-0.49c-0.5 0.62-0.87 0.59-1.23 0.56-0.37-0.02-0.72-0.03-1.18 0.59 0.39 0.03 0.77 0.09 1.16 0.13 0.54-0.47 1.57-1.13 1.25-1.28zm-6.58 14.46c-0.38-0.17-0.55-0.38-0.71-0.57-0.01 0.12-0.04 0.25-0.07 0.38 0.08-0.1-0.36 0.85-0.56 1.38-0.12 0.3-0.23 0.59-0.32 0.86-0.1 0.31-0.18 0.59-0.24 0.85-0.12 0.52-0.15 0.93-0.06 1.18 0.4-0.93 0.82-1.9 1.23-2.67l0.59-1.16 0.14-0.25zm8.69-7.94c-0.74 0.44-0.86 0.72-0.83 0.96 0.04 0.24 0.25 0.45 0.27 0.66 0.82-0.76 2.49-2 0.56-1.62zm2.34-4.72c0.61 0.33 1.01 0.67 1.4-0.04-0.34 0.15-0.65 0.25-0.72-0.02-0.02-0.3 0.59-0.6 1.19-0.91 0.59-0.3 1.17-0.63 0.93-0.91-0.65-0.16-1.16-0.49-1.88-0.6s-1.64 0-2.99 0.64c2-0.34 0.65 0.5 0.17 1.29 0.49-0.06 1.3 0.19 1.9 0.55zm3.35 0.99c-0.14-0.26-0.38-0.31-0.62-0.24s-0.48 0.27-0.74 0.53c-0.5 0.52-1.13 1.23-1.62 1.69 0.48 0.15 0.94-0.12 1.45-0.56 0.5-0.43 0.96-1.04 1.53-1.42zm13.01 31.61l0.06-0.03c0.01-0.01 0.02-0.01 0.03-0.02-0.02 0.02-0.06 0.03-0.09 0.05zm0.36-0.16l-0.03 0.01-0.31 0.13c-0.01 0-0.01 0.01-0.02 0.01-0.05 0.02-0.09 0.04-0.12 0.05 0.01-0.01 0.03-0.01 0.06-0.02h0.01l0.02-0.01 0.01-0.01h0.01c0.2-0.08 0.33-0.14 0.37-0.16zm0.69-0.52c-0.01 0.01-0.02 0.02-0.03 0.02-0.1 0.09-0.22 0.17-0.35 0.25 0.04-0.03 0.08-0.05 0.12-0.08 0.02-0.02 0.05-0.03 0.07-0.05 0.05-0.04 0.11-0.08 0.17-0.13 0.01 0 0.02 0 0.02-0.01zm0.82-0.7c-0.03 0.03-0.07 0.06-0.1 0.09 0.03-0.02 0.07-0.06 0.1-0.09zm0.88 0.9c-0.01 0-0.01 0 0 0h-0.2 0.2zm1.7 0.04c-0.03 0-0.05 0-0.08-0.01-0.24-0.01-0.48-0.02-0.65-0.04h-0.09c0.12 0.01 0.24 0.01 0.36 0.02 0.14 0.01 0.3 0.02 0.46 0.03zm0.07-4.3c-0.07 0.11-0.13 0.21-0.2 0.32-0.01 0.01 0.03-0.04 0.09-0.14 0.05-0.06 0.08-0.12 0.11-0.18zm0.68-1.23c-0.02 0.04-0.04 0.08-0.06 0.13l0.03-0.06c0.01-0.03 0.02-0.05 0.03-0.07zm0.05-0.12v0.01-0.01c0.02-0.04 0 0 0 0zm0.59-1.35c-0.01 0-0.01 0.01 0 0l0.01-0.02c0.01-0.04-0.01 0.02-0.01 0.02zm0.68 7.24h0.03 0.02c-0.01 0 0.05 0.01-0.05 0zm0.54 0.09c-0.05-0.01-0.11-0.02-0.16-0.03-0.09-0.01-0.17-0.03-0.25-0.04 0.13 0.03 0.27 0.05 0.41 0.07zm0.84 0.18c-0.06-0.01-0.11-0.02-0.17-0.03-0.01 0-0.02 0-0.03-0.01 0.07 0.01 0.13 0.02 0.2 0.04zm0.15 0.03c0.06 0.01 0.12 0.02 0.18 0.04-0.11-0.02-0.21-0.04-0.31-0.06-0.03-0.01-0.06-0.01-0.09-0.02 0.07 0 0.15 0.02 0.22 0.04zm0.61 0.13c-0.1-0.03-0.2-0.05-0.3-0.07-0.01 0-0.02-0.01-0.03-0.01s-0.02 0-0.03-0.01c-0.01 0-0.02 0-0.03-0.01 0.01 0 0.01 0 0.02 0.01-0.03-0.01-0.05-0.01-0.07-0.02 0.08 0.02 0.15 0.04 0.23 0.05-0.01 0-0.02-0.01-0.03-0.01l0.12 0.03c0.03 0.02 0.07 0.03 0.12 0.04zm0.6 0.17s-0.01-0.01-0.02-0.01c-0.03-0.01-0.06-0.02-0.09-0.02h-0.01c-0.09-0.03-0.19-0.05-0.3-0.08 0.08 0.02 0.15 0.04 0.22 0.06-0.09-0.03-0.18-0.04-0.27-0.07h0.01c0.1 0.03 0.15 0.04 0.16 0.05 0.02 0 0.05 0.01 0.13 0.03 0.02 0.01 0.05 0.01 0.08 0.02h0.01c0.03 0 0.06 0.01 0.08 0.02zm8.36-13.6c-0.65-0.08-0.77-0.56-0.29-1.51-0.55 0.66-1.07 1.29-1.58 1.89-0.5 0.61-0.97 1.19-1.47 1.75-0.99 1.12-2.02 2.14-3.29 3.05 0.42 0.1 0.08 0.72-0.58 1.62 0.26-0.04 0.54-0.09 0.82-0.13 1.82-2.03 3.95-4.16 6.39-6.67zm12.28 5.55c-2.24 0.74-1.39 0.54-3.7 0.85 0.1 0.41-0.23 0.74-0.59 1.07 1.83-0.57 4.47-1.02 4.29-1.92zm60.69-10.04c2.13-0.52 3.81-1.48 6.73-1.31-0.88-2.02 3.12-0.07 3.45-1.96-2.4 0.63-4.09 0.03-5.12 1.5 0.3-1.27-2.95 0.16-3.27-0.64 0.41-0.12 0.78-0.48-0.06-0.3-0.11 0.28-0.54 0.52-1.4 0.72 0.26 0.7 0.44 1.4-0.33 1.99zm4.67-0.08c-1.42-0.18-2.06 0.97-3.73 0.76 0.18 0.82 3.83 0.76 4.67-0.08-2.02 0.21-2.64 0.37-0.94-0.68zm-14.4 1.87c3.14-0.75 5.89-0.46 9.53-2.68-1.67-0.21-2.36 0.71-3.6 1.33-0.27-0.38-1.32-0.16-1.66-0.48 0.99-0.24 4.16-0.58 2.2-0.62-3.64 1.02-4.1-0.36-6.98 0.06 0.67 1 2.57 1.09 0.51 2.39zm4.17 23.11c0.01 1.57-2.35 0.54-3.75 1.02-0.05 1.1-0.55 1.82 1.25 2.18-0.3-0.8 4.67-1.02 4.37-1.83-3.74 0.91 2.17-1.93-1.87-1.37zm-14.99 4.02c0.16 0.34 0.36 0.65 1.62 0.2 0.22 0.41-0.04 1.17 0.99 0.99-0.56-0.94 4.05-1.24 4.33-2.09-3.23 0.2-4.28 0.58-6.94 0.9zm-0.88-23.64c2.55-0.58 3.22-2.17 5.82-1.88-0.73-0.76 1.08-1.21 0.35-1.98-0.89 0.28-1.72 0.56-1.34 0.99-3.75 0.96-4.04 1.17-1.35 0.99-1.68 0.55-3.09 1.16-3.48 1.88zm1.66 0.5c0.03 0.32 0.5 0.66 0.8 0.1-0.22-0.29-0.91-0.25-1.59-0.2-0.4 0.88-2.19 0.64-0.8-0.11-1.28 0.36-2.31 0.54-3.01 0.48-0.49 1.42 3.32 0.64 4.6-0.27zm10.34 23.32c-1.54-1.8-16.13 4.17-10.46 3.1-1.09 0.78 4.12-2.25 5.26-1.39 1.75-0.56 2.73-1.22 5.2-1.71zm9.34-8.24c-0.05 0.61 0.99 0.42 1.01 0.98-2.05 1.03-3.97 0.24-4.48 1.25 0.6-0.13 2.48 0.36 0.94 0.69-1.46-0.19-3.07 0.15-4.49 1.24 1.95-0.09 6.25-1.35 8.09-2.88 0.27 0.37 1.34 0.15 1.69 0.47-1.93-0.05-4.63 1.65-5.79 2.57 5.04-1.88 0.47 1.34 4.62-0.66-0.81 1.01 1.99 0.97 0.33 1.48-3.35-0.36-8.92 2.75-11.82 4.2 3.67-1.91 11.14-2.62 13.99-5.13-1.39 0.35-0.68-0.87-1.75-0.76 2.38-0.52 2.97-1.23 3.54-1.95-2.92 0.37-1.26 1.22-3.61 1.65 1.08-0.75 0.25-1.71 2.66-2.33 0.15 0.31-0.99 0.77 0.13 0.59-0.09-0.78 2.63-1.49 3.66-1.36 0.19-1.54-3.99-0.26-3.98 0.32-0.67-0.52-3.06 1.56-2.93 0.7-0.38-0.62 2.08-0.94 2.04-1.53-2.72 1.23-1.61-0.41-3.85 0.46zm8.83-20.22c-1.27-0.09-4.49 1.23-5.81 2 3.05-0.94 4.17-0.66 5.81-2z" style="fill: url(&quot;#__id37_sh0z2n2fva&quot;);"></path>
</g>
</svg>