<svg xmlns="http://www.w3.org/2000/svg" enable-background="new 0 0 109.4 103.9" version="1.1" viewBox="0 0 109.4 103.9" x="0px" xml:space="preserve" y="0px" style="fill: rgb(0, 0, 0);">
<g id="__id33_sf1wkgbhtn">
	<g id="__id34_sf1wkgbhtn" style="fill: rgb(209, 140, 3);">
		<path d="m41.3 80.2c-3.5-0.4-5.1-1.4-5-3.5 0.2-3.4 1.3-4.9 3.8-4.9 2.8 0 4.6 1.6 4.4 4.1-0.1 1.2-0.6 2.4-1.2 3.4-0.3 0.4-1.3 0.6-2 0.9z" style="fill: inherit;"></path>
		<path d="m9.2 61.6c-2.1-0.2-4-1.2-5.1-3.2-0.3-0.6 0.5-2.1 1.2-2.7 1.1-0.9 2.5-1.6 3.9-2 1.5-0.4 2.9 0 3.9 1.4 0.6 0.8 1.2 1.5-0.1 2.3-0.2 0.1-0.2 0.6-0.2 1-0.2 1.7-1.7 3.1-3.6 3.2z" style="fill: inherit;"></path>
		<path d="m24.6 38.1c2.1 0.1 4.7 2.3 4.5 4-0.4 3-1.1 4.6-3.9 4.6-1.5 0-4.4-2.2-4.4-3.2-0.1-2.9 1.8-5.5 3.8-5.4z" style="fill: inherit;"></path>
		<path d="m90.3 51.7c-0.5 3-3.3 2.8-5.1 3.9-0.4 0.2-1.4-0.1-1.9-0.5-2.1-1.6-1.4-5.3 0.8-6.6 1.8-1.1 3.3-0.4 4.7 0.6 0.8 0.5 1.1 1.7 1.5 2.6z" style="fill: inherit;"></path>
		<path d="m85 24.9c2.5 0.1 4.5 1.9 4.3 4-0.2 2-2 3.9-3.6 3.8-1.7-0.1-4.4-2.4-4.4-3.7 0.1-2.4 1.7-4.2 3.7-4.1z" style="fill: inherit;"></path>
		<path d="m50 36.3c-2.3 0-4.7-2.1-4.6-4 0.1-1.3 1.8-3.7 2.7-3.6 3.2 0.2 4.7 1.8 4.9 4.1 0.1 1.8-1.5 3.5-3 3.5z" style="fill: inherit;"></path>
		<path d="m80.2 74.9c-0.9 0-1.7 0-2.5-0.1-2.3-0.5-3.3-3.1-2.3-5.8 0.4-1 0.7-2.1 2-2.1 1.8 0 4.4 1.3 4.1 2.4-0.3 1.4 0.6 3.2-1.1 4.2-0.2 0-0.1 0.7-0.2 1.4z" style="fill: inherit;"></path>
		<path d="m40.7 54.1c0.1-2.1 0.8-2.7 2.9-2.9 1.8-0.2 3.3 0.3 4.3 1.8 0.5 0.9 0.7 1.8-0.3 2.6-0.2 0.1-0.4 0.3-0.4 0.4-0.3 1.8-1.5 2.3-3.1 1.9-2.5-0.6-3.5-1.8-3.4-3.8z" style="fill: inherit;"></path>
		<path d="m45.2 17.4c0.1-2.3 2-4.2 4.2-4.2 1.3 0 3.2 1.8 3 2.9-0.2 1.2-0.7 2.4-1.2 3.5-0.6 1.4-2.1 0.5-3.1 0.9-1.4 0.4-2.9-1.5-2.9-3.1z" style="fill: inherit;"></path>
		<path d="m54.8 4.4c0.4-3.4 2.5-5.3 5.5-4 0.5 0.2 0.8 0.8 1.1 1.3 0.2 0.3 0.4 0.7 0.6 1 0.1 0.3 0.4 0.7 0.3 0.8-0.2 0.2-0.6 0.4-0.9 0.3-0.9-0.2-1.3-0.2-0.7 0.9 0.3 0.6-1.2 2.8-2 3-1.8 0.4-4-1.6-3.9-3.3z" style="fill: inherit;"></path>
		<path d="m40.3 92.9c0 1.4-1.6 3.5-2.6 3.5-1.4 0-4.8-2.1-4.8-3 0-2 1.5-3.9 2.9-3.9 3.6 0.2 4.6 1 4.5 3.4z" style="fill: inherit;"></path>
		<path d="m102.6 30c-1.7-0.5-3.1-0.8-4.5-1.3-1.5-0.6-0.9-2.2-1.2-3.2-0.1-0.4 1.1-1.3 1.8-1.6 2.1-0.8 4.8 0.1 5.9 2 0.3 0.6 0.3 1.6 0 2.2-0.5 0.7-1.4 1.3-2 1.9z" style="fill: inherit;"></path>
		<path d="m95.1 63.7c-0.1 0.7 0 1.5-0.4 1.9-0.8 1-2 1.5-3.4 1.5-0.9 0-3.4-2.3-3.1-2.8 0.7-1.1-1.1-3.4 1.7-3.5 3.7 0 5 0.8 5.2 2.9z" style="fill: inherit;"></path>
		<path d="m78.3 37.3c0 1.8-1.2 3.3-2.6 3.2-2.1-0.1-4-2-4-3.9 0-1.1 1.5-3.2 2.3-3.2 2 0.1 4.3 2.1 4.3 3.9z" style="fill: inherit;"></path>
		<path d="m11.7 11c0.2 0.2 0.4 0.3 0.9 0.9-1 0.1-1.6 0.2-2.1 0.2-0.8-0.1-1.5-0.4-2.3-0.5-0.9-0.2-2-0.3-2.3-1.5-0.2-1.3 0.8-3.1 2.1-3.5 1-0.3 2.1-0.5 3.1-0.5 1.8 0.1 2.6 1.4 1.9 3-0.4 0.7-0.9 1.3-1.3 1.9z" style="fill: inherit;"></path>
		<path d="m29.1 27.1c0.1-2.1 1.2-3.6 2.6-3.5 2 0.1 3.7 2 3.7 4.1 0 1.7-1 2.9-2.3 2.9-2.3-0.1-4.1-1.7-4-3.5z" style="fill: inherit;"></path>
		<path d="m73.3 103.9c-1.2-0.2-2.1-0.6-2-2 0.1-1 0-1.9-0.1-2.9-0.1-1.5 0.8-1.9 2-2 0.8-0.1 1.7-0.2 2.4 0.1 1.3 0.6 0.8 2 1 3 0.1 0.3-0.2 0.7-0.2 1-0.1 1.8-1.3 2.9-3.1 2.8z" style="fill: inherit;"></path>
		<path d="m5.8 36.1c0.2 0.9 0.4 1.5 0.4 2 0 0.7 0 1.4-0.3 1.9-0.6 1.2-2.3 1.4-4.6 0.5-1.1-0.4-1.2-1.3-1.3-2.5-0.1-1.6 1.4-2.1 2-3.3 0.1-0.3 1.4-0.2 2 0 0.8 0.4 1.3 1 1.8 1.4z" style="fill: inherit;"></path>
		<path d="m74.4 57.1c-2.7-0.1-4.1-1.2-4.1-3.2 0-1.2 1.7-2.5 3.2-2.5 1.9 0 3.5 1.4 3.3 3.1-0.2 2.3-0.5 2.7-2.4 2.6z" style="fill: inherit;"></path>
		<path d="m65.4 20.5c2.3 0.4 4 2.2 4.1 4.4 0 0.7-1.9 2.8-2.6 2.5-1.1-0.4-2.3-0.8-3.1-1.6-1.2-1.1-0.9-2 0.3-3.3 0.5-0.5 0.8-1.2 1.3-2z" style="fill: inherit;"></path>
		<path d="m64.7 46.4c0 1.4-1.5 2.5-2.8 2.1-0.7-0.2-1.4-0.5-2.1-0.7-2.8-0.8-2.3-1.8-0.8-3.7 0.7-0.9 2.3-1.8 3.9-1.3 0.8 0.2 1.4 0.5 1.3 1.5 0 0.8 0.4 1.5 0.5 2.1z" style="fill: inherit;"></path>
		<path d="m51.7 95.4c0-1.3 1.1-2.2 2.9-2.2 1.5 0 3.4 1.6 3.5 2.9 0 0.7-2 3.1-2.5 3.1-2.7-0.1-3.9-1.2-3.9-3.8z" style="fill: inherit;"></path>
		<path d="m43.9 1.2c1.6 0.1 3.2 1.5 3 2.7-0.2 1.7-2.1 3.8-3.4 3.8-1.1 0-2.6-2-2.6-3.2 0-1.6 1.6-3.4 3-3.3z" style="fill: inherit;"></path>
		<path d="m68.9 66.4c-0.9 0.8-1.9 1.3-3.3 1.2-1.3-0.1-1.9-0.8-2.3-1.9s0.3-3.5 1.2-3.9c1.4-0.6 3.8 0.2 4.3 1.6 0.2 0.9 0.1 1.9 0.1 3z" style="fill: inherit;"></path>
		<path d="m31.1 63.5c0 1.3-2.2 3.6-3.5 3.6s-2.5-0.8-2.5-1.8c0-2.9 1-4.3 2.7-4.3 2 0 3.3 1.1 3.3 2.5z" style="fill: inherit;"></path>
		<path d="m102.4 74.7c-1.3-1.4-2.4-2.5-3.4-3.8-0.6-0.8 0.9-2.9 2-3.2 1.5-0.4 2.9 0.4 3.4 1.5 0.6 1.4 0.3 2.3-0.8 3.2-0.4 0.5-0.6 1.2-1.2 2.3z" style="fill: inherit;"></path>
		<path d="m11.7 25.3c0-1.6 1.7-3.7 3-3.7s2.7 1.1 2.7 2.1c0 2.9-0.6 3.9-2.6 3.9s-3.1-0.9-3.1-2.3z" style="fill: inherit;"></path>
		<path d="m18.3 80.5c-0.2 0-0.7 0-1.1-0.1-0.9-0.3-2.3-0.6-2.4-1.1-0.2-1.1 0-2.3 1.5-3 2.1-1.1 3.7-0.8 4.5 1.5 0.7 2 0 2.9-2.5 2.7z" style="fill: inherit;"></path>
		<path d="m89 14.1c-1.7 2.7-2.4 3-4.9 2.4-1.2-0.3-1.5-1.1-1.5-2.1 0-1.4 0.7-2.4 2.1-2.9 1.2-0.4 2.3 0.2 4.3 2.6z" style="fill: inherit;"></path>
		<path d="m89 93.5c-1.8 1.3-3.6 2.4-5.8 3-0.2 0-0.4-0.1-0.6-0.2-1.2-0.8-0.9-3.4 0.3-4.2 1.3-0.9 2.8-1.3 4.2-0.6 0.8 0.4 1.2 1.2 1.9 2z" style="fill: inherit;"></path>
		<path d="m81.2 88.1c-1.2 0.5-4.3-0.2-5.2-1.4-0.6-0.8 0.8-3.8 1.9-3.9 1.4-0.2 3.5 1 3.9 2.4 0.1 0.3-0.1 0.7-0.1 1-0.1 0.5-0.3 1.1-0.5 1.9z" style="fill: inherit;"></path>
		<path d="m94.7 78.6c0.2 1.5-1 1.6-2.1 1.7-1.4 0.1-3.7-1.7-3.7-2.8s1.9-3 2.9-3c1.6 0.1 2.9 1.9 2.9 4.1z" style="fill: inherit;"></path>
		<path d="m70.1 79.2c-1.2 0.7-2.3 1.6-3.6 1.9-0.9 0.2-2.1-0.3-2.9-0.9-0.6-0.4 0-3.1 0.6-3.6 0.9-0.8 4-0.3 4.7 0.7 0.3 0.5 0.6 1 1.2 1.9z" style="fill: inherit;"></path>
		<path d="m67.1 88.9c1.5 0.1 3.2 1.2 3.2 2.2 0 1.7-1.4 3.1-3 3s-3.4-1.2-3.3-2.1c-0.1-1.2 1.9-3.1 3.1-3.1z" style="fill: inherit;"></path>
		<path d="m104.8 53.5c0 1-1 1.9-2.3 1.9-1.8 0.1-3.7-1.2-3.7-2.4 0-1.6 0.8-2.8 1.9-2.7 2.4 0 4 1.2 4.1 3.2z" style="fill: inherit;"></path>
		<path d="m29.1 10.2c2.2 0.1 3.2 1.3 2.8 2.8-0.1 0.3-0.5 0.5-0.7 0.8-0.1 0.1-0.3 0.2-0.4 0.4-0.3 0.4-0.4 1-0.8 1.2-0.9 0.5-3.2-0.4-3.7-1.3-0.5-1 0.1-2.7 1.3-3.3 0.6-0.3 1.3-0.5 1.5-0.6z" style="fill: inherit;"></path>
		<path d="m53.5 79.6c1.7 0.1 3.4 1.3 3.3 2.3-0.1 1.5-1.5 3-2.8 2.9-1.9-0.1-3.3-1.5-3.1-3.3 0.1-1 1.4-2 2.6-1.9z" style="fill: inherit;"></path>
		<path d="m74.9 12.5c-0.2 0.2-0.6 1-1.2 1.2-0.8 0.3-1.7 1.1-2.5-0.1-0.1-0.2-0.4-0.2-0.7-0.3-1.5-0.3-2.1-1-1.2-2.2 0.6-0.9 1.9-1.8 2.9-1.9 1.6 0 2.8 1.5 2.7 3.3z" style="fill: inherit;"></path>
		<path d="m21 5.6c-2.2 0-3.5-0.8-3.5-1.9 0-1.4 1.7-3.2 3-3.3 1.2-0.1 1.9 0.2 1.7 1.6-0.1 0.9 1.1 1.8-0.1 2.7-0.4 0.4-0.9 0.8-1.1 0.9z" style="fill: inherit;"></path>
		<path d="m54.4 68.8c-1.7 0-2.8-0.8-2.8-2 0-1.3 1.1-2.5 2.2-2.6 1.2 0 3 1.3 3 2.3 0 0.9-1.4 2.3-2.4 2.3z" style="fill: inherit;"></path>
		<path d="m97.3 42.1c-2.4 1.4-4.3 1-5.5-1.7 0.4-1.2 1.3-1.7 3-1.5 1.6 0.3 2.6 1.7 2.5 3.2z" style="fill: inherit;"></path>
		<path d="m107.4 41.5c-0.9-0.4-1.8-0.5-2-1-0.4-0.7-0.4-1.6-0.4-2.4 0-0.2 1-0.4 1.5-0.4 0.4 0 1 0 1.3 0.3 0.6 0.5 1.1 1.2 1.6 1.8-0.6 0.6-1.3 1.1-2 1.7z" style="fill: inherit;"></path>
	</g>
</g>
</svg>